<svg fill="none" height="231" viewBox="0 0 897 231" width="897" xmlns="http://www.w3.org/2000/svg" xmlns:xlink="http://www.w3.org/1999/xlink"><clipPath id="a"><path d="m0 0h50v50h-50z" transform="matrix(.93581983 .35247872 -.35247872 .93581983 684.917 152.793)"/></clipPath><mask id="b" height="150" maskUnits="userSpaceOnUse" width="838" x="30" y="31"><path d="m820.531 151.245-1.393-.204c-2.786-.409-3.978-1.101-4.422-3.366l-3.418-15.508c-.071-.398-.142-.797-.105-1.05.279-1.9 2.849-1.782 4.369-1.559 7.49.97 11.557-2.056 12.003-5.096.241-1.646-1.108-3.914-2.547-6.454l-2.862-4.301c-4.644-7.149-6.125-12.929-5.419-17.7417 2.099-14.3109 23.857-18.8818 40.448-16.4484 4.939.7245 6.131 1.4168 6.683 3.8265l3.544 15.5267c.179.5437.124.9236.068 1.3039-.204 1.393-1.672 1.695-3.318 1.454l-.507-.075c-7.598-1.114-10.883.991-11.254 3.524-.316 2.153 1.231 4.838 5.263 10.863 4.897 7.187 6.594 13.257 5.888 18.07-2.192 14.944-26.05 19.724-43.021 17.235z" fill="#f5a2ee"/><path d="m806.461 149.799-9.157 15.539c-.921 1.477-1.888 2.316-3.165 2.407-.638.046-1.422-.155-2.225-.611-7.35-4.095-24.011-12.787-30.814-16.409-.802-.456-1.641-1.422-1.723-2.571-.046-.639.164-1.295.748-2.107l8.637-12.037c-6.247 4.167-11.892 7.778-14.355 9.237l-.739.438 2.707 21.75c.11 1.532-.821 2.882-2.353 2.991l-25.435 3.226c-1.404.101-2.754-.83-2.991-2.353l-12.804-103.9279-.019-.2554c-.091-1.2767.976-2.5078 2.244-2.7266l25.444-3.0986.255-.0182c1.405-.1002 2.508.976 2.736 2.3713l6.68 54.0614c4.944-4.459 25.738-22.3681 31.355-22.7689 1.022-.0729 2.207.3558 3.347 1.9427l11.827 16.4802c.565.73.875 1.477.93 2.243.091 1.277-.593 2.481-2.07 3.356-3.083 1.76-10.078 6.237-17.438 10.997 9.138 2.171 28.753 14.503 29.09 19.227.055.766-.146 1.55-.712 2.617z" fill="#f5a2ee"/><path d="m669.222 172.72-24.641-6.605c-1.46-.479-2.356-1.851-1.877-3.31l17.349-64.3593c.479-1.4594 1.973-2.3163 3.311-1.8773l14.347 3.9006c7.246.088 13.889 1.19 19.97 3.186 4.135 1.357 7.989 3.16 11.48 5.249 1.664 1.085 2.075 2.298 1.596 3.757-.16.487-.441.933-.762 1.501l-9.155 15.991c-.924 1.583-2.419 2.035-3.879 1.556-.365-.12-.811-.401-1.258-.682-1.746-1.247-3.694-2.29-5.761-2.969-1.703-.559-3.485-.874-5.591-1.026l-11.819 43.811-.079.243c-.44 1.338-1.893 2.073-3.231 1.634z" fill="#f5a2ee"/><path d="m618.582 179.145-1.507.295c-28.516 5.576-46.644-11.095-50.378-30.19-3.512-17.964 5.491-39.288 34.132-44.888 31.154-6.0918 37.965 21.4 38.775 25.546 1.13 5.778-.323 11.019-7.244 14.98-5.511 3.165-14.537 6.364-21.02 7.893-2.01.393-2.81-.364-3.607-1.773-2.318-3.851-6.301-11.549-6.4-12.052-.27-1.382.612-2.206 2.172-2.902 6.237-2.785 7.067-3.208 6.724-4.967-.221-1.131-3.394-4.684-8.67-3.652-6.03 1.179-10.023 7.437-8.5 15.226 1.744 8.919 10.241 17.691 25.944 14.621.879-.172 1.884-.368 2.739-.666l.251-.049c1.759-.344 4.115.369 4.533 2.505.245 1.256-1.35 10.437-2.4 15.076-.612 2.207-1.901 4.285-5.544 4.997z" fill="#f5a2ee"/><path d="m506.901 145.403-.254-.036-26.414-5.176c-1.503-.343-2.355-1.628-2.139-3.148l19.441-99.5028c.18-1.2673 1.483-2.2457 2.877-2.0476l.253.036 23.029 4.4362c5.304-.9271 10.499-1.0938 15.441-.3915 23.444 3.3317 42.141 23.7008 38.665 48.1591-3.332 23.4446-21.623 37.5226-47.982 33.7776-5.322-.757-10.41-2.256-15.028-4.334l-4.995 26.052c-.325 1.376-1.627 2.355-2.894 2.175zm17.916-79.68-5.175 26.4145c2.607 1.6635 6.03 3.0549 9.451 3.5411 13.94 1.981 15.867-11.5788 15.993-12.4659 1.261-8.8708-4.953-16.089-14.331-17.4216-1.774-.2522-3.838-.2868-5.938-.0681z" fill="#f5a2ee"/><path d="m450.188 132.784c0 24.96-25.344 38.912-43.52 38.912-20.864 0-39.168-15.104-39.168-37.632 0-26.368 19.712-40.064 42.24-40.064 28.288 0 40.448 22.144 40.448 38.784zm-40.448 14.464c9.088 0 13.184-7.424 13.184-14.72 0-2.432-.512-14.848-13.568-14.848-10.752 0-13.824 9.088-13.824 14.848 0 8.832 6.912 14.72 14.208 14.72z" fill="#f5a2ee"/><path d="m361.986 120.649-9.912 14.359c-1.514 2.16-2.911 3.168-4.787 2.763-.376-.081-.751-.162-1.099-.369-19.278-8.356-23.906-20.879-17.692-52.6681l-9.275-2.528c-1.349-.4225-2.205-1.9169-1.908-3.2931l5.989-20.4444c.423-1.3492 1.792-2.2319 3.293-1.9075l7.9 2.2306c1.277-4.7002 2.636-9.7757 4.173-15.0745.45-1.4743 1.214-3.7974 4.467-3.0945l.5.1081 23.403 6.2354c2.1.5847 2.831 2.0521 2.371 4.179-1.386 5.2007-2.95 10.6245-4.461 15.7982l8.525 2.3657c1.376.2974 2.231 1.7918 1.907 3.2932l-5.989 20.4443c-.395 1.2241-1.64 2.1338-3.016 1.8365l-.25-.0541-8.176-2.1596c-2.46 11.3848-2.824 20.3428 2.167 23.9088 1.241.923 2.634 1.748 2.337 3.124-.054.251-.26.599-.467.947z" fill="#f5a2ee"/><path d="m333.748 142.626-3.408 17.066c-.514 2.408-1.431 3.866-3.032 4.32-1.232.349-10.41.824-18.209-3.217-5.46 5.142-11.691 8.506-17.971 10.287-20.564 5.834-42.768-4.897-48.393-24.723-4.192-14.777.232-39.05 24.614-45.966 6.157-1.7471 12.575-2.1043 17.971-1.3733.495-1.0716 1.498-1.7554 2.976-2.1746l.616-.1747 21.827-4.1963c3.271-.662 4.588.6943 5.007 2.172l.174.6157c1.455 11.6952 2.771 22.8972 5.076 31.0242 2.096 7.389 4.953 12.299 9.487 13.275 1.406.266 2.971.621 3.32 1.852.07.247.051.651-.055 1.213zm-38.631 1.247c-1.277-3.097-2.502-6.475-3.585-10.293-.908-3.201-1.728-6.561-2.53-10.325-2.176-2.044-5.99-2.825-9.561-1.811-7.758 2.2-9.937 10.935-8.155 17.215 1.956 6.896 8.435 11.444 16.44 9.173 2.339-.663 4.909-1.924 7.391-3.959z" fill="#f5a2ee"/><path d="m229.98 129.24-6.656 16.128c-1.024 2.432-2.176 3.712-4.096 3.712-.384 0-.768 0-1.152-.128-20.608-4.096-27.776-15.36-28.416-47.744l-9.6-.512c-1.408-.128-2.56-1.408-2.56-2.816l1.536-21.248c.128-1.408 1.28-2.56 2.816-2.56l8.192.512c.256-4.864.512-10.112.896-15.616.128-1.536.384-3.968 3.712-3.968h.512l24.192 1.152c2.176.128 3.2 1.408 3.2 3.584-.256 5.376-.64 11.008-1.024 16.384l8.832.512c1.408 0 2.56 1.28 2.56 2.816l-1.536 21.248c-.128 1.28-1.152 2.432-2.56 2.432h-.256l-8.448-.384c0 11.648 1.536 20.48 7.168 22.912 1.408.64 2.944 1.152 2.944 2.56 0 .256-.128.64-.256 1.024z" fill="#f5a2ee"/><path d="m186.188 130.784c0 24.96-25.344 38.912-43.52 38.912-20.864 0-39.168-15.104-39.168-37.632 0-26.368 19.712-40.064 42.24-40.064 28.288 0 40.448 22.144 40.448 38.784zm-40.448 14.464c9.088 0 13.184-7.424 13.184-14.72 0-2.432-.512-14.848-13.568-14.848-10.752 0-13.824 9.088-13.824 14.848 0 8.832 6.912 14.72 14.208 14.72z" fill="#f5a2ee"/><path d="m60.196 140.312h-.256l-26.88-1.408c-1.536-.128-2.56-1.28-2.56-2.816l5.248-101.248c0-1.28 1.152-2.432 2.56-2.432h.256l23.424 1.152c5.12-1.664 10.24-2.56 15.232-2.56 23.68 0 45.056 17.536 45.056 42.24 0 23.68-16.128 40.192-42.752 40.192-5.376 0-10.624-.768-15.488-2.176l-1.28 26.496c-.128 1.408-1.28 2.56-2.56 2.56zm6.528-81.408-1.408 26.88c2.816 1.28 6.4 2.176 9.856 2.176 14.08 0 14.08-13.696 14.08-14.592 0-8.96-7.168-15.232-16.64-15.232-1.792 0-3.84.256-5.888.768z" fill="#f5a2ee"/></mask><path d="m387.688 167.463 7.152 2.706c4.065 1.538 8.398 2.238 12.741 2.057 3.587-.15 7.125-.898 10.466-2.214l5.531-2.179c3.93-1.548 7.635-3.617 11.014-6.152l5.761-4.32c2.069-1.553 3.749-3.566 4.906-5.88 2.63-5.258 7.835-8.742 13.698-9.169l14.086-1.024c2.632-.192 5.276-.131 7.897.179l23.464 2.784c1.38.164 2.78.021 4.098-.418 4.764-1.588 9.937.83 11.773 5.504l1.148 2.921c.706 1.797.929 3.747.648 5.657l-.397 2.702c-.849 5.773 3.967 10.799 9.77 10.199l.805-.083c1.459-.151 2.926.189 4.17.966l1.781 1.114c3.613 2.258 8.3-.34 8.3-4.601 0-1.707.804-3.315 2.17-4.339l9.83-7.373c3.454-2.994 8.851-1.32 10.005 3.103l.097.372c.261 1.002.762 1.925 1.458 2.691l5.862 6.449c5.245 5.769 12.212 9.689 19.865 11.177l2.034.395c2.765.538 5.602.592 8.385.159l11.039-1.717c4.287-.667 7.602-4.113 8.103-8.422.79-6.795 8.203-10.634 14.208-7.358l2.809 1.532c.754.411 1.552.739 2.377.978l21.258 6.141 2.437.541c6.931 1.541 12.671 6.374 15.369 12.942l2.666 6.493c2.594 6.316 9.454 9.747 16.064 8.033 1.302-.337 2.547-.865 3.695-1.567l10.455-6.389c3.734-2.282 6.455-5.905 7.607-10.127 1.666-6.11 6.563-10.806 12.738-12.214l10.843-2.473c4.341-.99 7.243-5.086 6.738-9.51l-.643-5.626c-.25-2.186 1.46-4.103 3.661-4.103.572 0 1.136.133 1.648.389l4.918 2.459c1.532.766 2.989 1.677 4.349 2.72l10.465 8.023c1.643 1.26 3.523 2.176 5.529 2.693l2.928.756c5.52 1.424 11.27-1.303 13.659-6.479l1.478-3.203c1.883-4.08 6.695-5.892 10.802-4.066 1.051.467 2.188.708 3.338.708h16.808c4.898 0 9.729-1.14 14.11-3.331l5.027-2.513c4.05-2.025 7.161-5.537 8.684-9.801 1.672-4.682 1.281-9.854-1.076-14.232l-2.589-4.809c-.47-.871-.811-1.806-1.012-2.775l-.864-4.146c-.725-3.481 1.605-6.863 5.116-7.425 3.359-.537 5.666-3.668 5.185-7.035l-.824-5.7695c-.773-5.4138-5.066-9.6452-10.49-10.3406l-6.658-.8536c-2.422-.3105-4.88-.1957-7.262.3391l-9.749 2.1885c-6.865 1.5411-12.325 6.7346-14.209 13.514l-.33 1.1892c-1.038 3.7362-.669 7.7229 1.037 11.2059l3.391 6.923c2.972 6.069-.741 13.288-7.407 14.399-1.081.18-2.125.535-3.092 1.05l-8.372 4.466c-3.179 1.695-7.035 1.492-10.017-.529l-.764-.517c-4.956-3.358-5.324-10.525-.737-14.372 3.59-3.011 4.275-8.271 1.577-12.101l-6.763-9.598c-2.52-3.5778-3.383-8.0656-2.37-12.3232.595-2.4955 1.808-4.801 3.529-6.7033l1.172-1.2948c3.672-4.0584 5.705-9.3363 5.705-14.8093v-1.1958c0-4.0941-1.302-8.0821-3.717-11.3877-3.635-4.973-9.424-7.9129-15.584-7.9129h-2.503c-4.938 0-9.683 1.9134-13.24 5.3382l-1.003.9663c-4.301 4.1419-6.06 10.2671-4.612 16.06l1.919 7.6773c.449 1.7956-.212 3.6862-1.682 4.8105-2.767 2.1159-6.792.5414-7.389-2.8904l-1.188-6.8325c-.831-4.7794-5.357-7.9972-10.145-7.2124l-6.795 1.114c-8.401 1.3771-14.199 9.163-13.113 17.6062l3.029 23.5308c.62 4.813-4.569 8.232-8.747 5.763-.484-.286-1.007-.5-1.552-.637l-31.178-7.794c-8.418-2.7155-17.389 2.197-19.635 10.753l-5.206 19.833c-.683 2.601-3.034 4.414-5.722 4.414-2.629 0-4.943-1.735-5.679-4.259l-1.627-5.578c-.418-1.432-1.068-2.787-1.923-4.009l-3.342-4.774c-3.795-5.421-9.339-9.372-15.702-11.19l-5.167-1.477c-1.634-.466-3.111-1.368-4.273-2.607-3.263-3.4806-3.399-8.8532-.318-12.4948l6.364-7.5217c2.52-2.9781 1.884-7.487-1.362-9.651l-.624-.4161c-1.427-.9511-2.284-2.5523-2.284-4.267 0-4.3986-5.174-6.7561-8.493-3.8698l-9.25 8.0433c-2.449 2.1296-1.857 6.0822 1.109 7.4004 1.602.7119 2.634 2.3004 2.634 4.0533v4.2782c0 4.7341-3.587 8.6979-8.298 9.169-5.952.5952-10.885-4.5504-10.039-10.4722l.435-3.0431c.264-1.8491.079-3.7346-.54-5.4968l-2.782-7.9157c-1.835-5.2249-4.601-10.0747-8.163-14.3152l-1.173-1.396c-2.61-3.1075-5.697-5.7812-9.145-7.9215-6.076-3.771-13.084-5.7693-20.235-5.7693h-13.672c-1.256 0-2.51-.113-3.745-.3377-11.196-2.0356-21.968 5.2459-24.252 16.3942l-14.501 70.7795c-1.391 6.789-7.366 11.664-14.297 11.664h-7.963c-3.662 0-6.63-2.968-6.63-6.63 0-.904-.185-1.798-.543-2.628l-2.925-6.773c-3.899-9.03-10.822-16.42-19.578-20.899l-2.861-1.4642c-3.378-1.7281-6.987-2.9583-10.717-3.6522-10.172-1.8924-20.679.3004-29.245 6.1034l-2.131 1.443-11.628 10.077c-2.121 1.839-4.988 2.564-7.729 1.955l-1.067-.237c-2.234-.497-4.07-2.079-4.891-4.214-.749-1.946-.566-4.128.494-5.923l3.108-5.2599c1.121-1.8955 2.741-3.4461 4.683-4.4822 2.893-1.5429 5.029-4.2027 5.91-7.3607l2.782-9.9681c1.096-3.9291-.458-8.1178-3.852-10.3806-2.952-1.9675-4.549-5.4248-4.135-8.9476l.112-.9479c.681-5.7866-3.274-11.0982-9.013-12.105l-9.349-1.6403c-5.188-.91-10.295 1.9729-12.196 6.8842l-1.004 2.5938c-1.04 2.6859-3.623 4.4563-6.504 4.4563-2.851 0-5.415 1.7361-6.475 4.3838l-6.246 15.6162c-3.394 6.2665-11.618 7.9596-17.212 3.5435l-8.288-6.5435-7.226-5.4775c-11.02-8.3544-26.985-2.344-29.76 11.2041l-1.028 5.0196c-.9 4.3925-4.353 7.8131-8.753 8.6718l-1.149.2241c-6.262 1.2219-12.084-3.5737-12.084-9.9544v-2.3838c0-2.611-1.556-4.9708-3.956-5.9993-1.913-.82-3.321-2.5034-3.789-4.5316l-1.007-4.367c-1.609-6.9692-7.815-11.906-14.967-11.906h-.873c-8.248 0-15.236 6.1055-16.272 14.2883-.278 2.1912-.509 4.0691-.636 5.2117-.4 3.6-8.5 1.5-12.5 0l-16.334-5.5604c-3.642-1.2401-5.153-5.5706-3.072-8.8074.269-.4198.591-.8038.957-1.1428l9.093-8.4192c2.459-2.2763 3.856-5.4747 3.856-8.825v-1.0222c0-3.5549-1.85-6.8536-4.883-8.7072-2.606-1.5927-5.789-1.9342-8.674-.9308l-4.979 1.732c-1.3.4521-2.667.683-4.043.683h-.047c-1.242 0-2.476-.1926-3.658-.571l-2.198-.7034c-4.791-1.533-9.949.9166-11.788 5.5982-1.36 3.4608-.585 7.3962 1.985 10.0832l4.748 4.9635c5.397 5.6424 2.073 15.0249-5.673 16.0107-4.952.6303-9.549-2.6751-10.528-7.5703l-.214-1.0725c-.359-1.7955-1.174-3.4685-2.365-4.8587l-5.4-6.2992c-3.165-3.6928-6.942-6.814-11.165-9.2271l-8.1352-4.6489c-1.9837-1.1336-4.0745-2.0684-6.242-2.7909-5.7279-1.9093-11.855-2.2908-17.7755-1.1067l-8.8353 1.7671c-1.4165.2833-2.8576.426-4.3021.426-11.6735 0-21.3023 9.1421-21.9071 20.7999l-3.5334 68.0971c-.4825 9.299 6.9274 17.103 16.239 17.103h3.8577c6.2363 0 11.441-4.761 11.9956-10.972l.969-10.853c.2686-3.009 3.4375-4.843 6.1803-3.577.5738.265 1.1983.402 1.8303.402h10.3515c5.3566 0 10.6105-1.47 15.1892-4.25l6.247-3.793c.493-.299 1.058-.457 1.634-.457 2.219 0 3.741 2.234 2.93 4.299l-3.811 9.701-.98 3.5c-1.648 5.887-1.648 12.113 0 18 .651 2.326 1.554 4.575 2.691 6.707l2.054 3.853c2.77 5.194 6.913 9.527 11.976 12.527 3.799 2.251 8.02 3.696 12.401 4.243l3.138.392c9.272 1.16 18.68-.452 27.038-4.631l6.724-3.362c1.621-.811 3.057-1.948 4.217-3.34l2.556-3.067c4.162-4.995 11.907-4.76 15.759.479 2.856 3.884 2.539 9.251-.755 12.772l-.874.934c-4.379 4.681-4.11 12.033.601 16.382l.965.891c5.425 5.007 13.942 4.429 18.64-1.266l.617-.748c4.199-5.09 4.199-12.442 0-17.532l-6.613-8.016c-1.672-2.027-2.297-4.72-1.689-7.277l.717-3.011c.479-2.011 2.276-3.43 4.343-3.43.642 0 1.276.138 1.86.406l5.794 2.656c2.866 1.313 6.243-.099 7.32-3.062l5.304-11.746c1.033-2.285 3.308-3.754 5.815-3.754 3.524 0 6.381 2.857 6.381 6.381v3.847c0 1.173.202 2.336.596 3.44l2.11 5.909c1.514 4.239 3.864 8.13 6.912 11.442 4.487 4.878 10.318 8.319 16.757 9.89l3.327.811c4.83 1.178 9.825 1.521 14.771 1.014l6.386-.655c3.691-.379 7.209-1.755 10.178-3.981l1.166-.875c3.999-3 9.104-4.116 13.991-3.059l7.356 1.59c2.103.455 4.277-.357 5.568-2.077.578-.771.943-1.68 1.06-2.637l2.181-17.887c.094-.767.264-1.522.508-2.255l1.99-5.97c.384-1.151 1.462-1.928 2.675-1.928.628 0 1.237.209 1.732.594l5.822 4.528c1.475 1.148 3.478 1.346 5.15.51.825-.413 1.516-1.052 1.991-1.844l7.459-12.431c1.199-1.999 3.924-2.408 5.657-.848 1.02.917 1.449 2.323 1.116 3.653l-.951 3.807c-.335 1.34-.396 2.734-.177 4.098l1.669 10.433c1.621 6.809 5.394 12.931 10.753 17.432 2.811 2.362 6.001 4.232 9.435 5.531z" fill="#74b2e1" stroke="#7e74e1" stroke-width="60"/><path d="m387.688 167.463 7.152 2.706c4.065 1.538 8.398 2.238 12.741 2.057 3.587-.15 7.125-.898 10.466-2.214l5.531-2.179c3.93-1.548 7.635-3.617 11.014-6.152l5.761-4.32c2.069-1.553 3.749-3.566 4.906-5.88 2.63-5.258 7.835-8.742 13.698-9.169l14.086-1.024c2.632-.192 5.276-.131 7.897.179l23.464 2.784c1.38.164 2.78.021 4.098-.418 4.764-1.588 9.937.83 11.773 5.504l1.148 2.921c.706 1.797.929 3.747.648 5.657l-.397 2.702c-.849 5.773 3.967 10.799 9.77 10.199l.805-.083c1.459-.151 2.926.189 4.17.966l1.781 1.114c3.613 2.258 8.3-.34 8.3-4.601 0-1.707.804-3.315 2.17-4.339l9.83-7.373c3.454-2.994 8.851-1.32 10.005 3.103l.097.372c.261 1.002.762 1.925 1.458 2.691l5.862 6.449c5.245 5.769 12.212 9.689 19.865 11.177l2.034.395c2.765.538 5.602.592 8.385.159l11.039-1.717c4.287-.667 7.602-4.113 8.103-8.422.79-6.795 8.203-10.634 14.208-7.358l2.809 1.532c.754.411 1.552.739 2.377.978l21.258 6.141 2.437.541c6.931 1.541 12.671 6.374 15.369 12.942l2.666 6.493c2.594 6.316 9.454 9.747 16.064 8.033 1.302-.337 2.547-.865 3.695-1.567l10.455-6.389c3.734-2.282 6.455-5.905 7.607-10.127 1.666-6.11 6.563-10.806 12.738-12.214l10.843-2.473c4.341-.99 7.243-5.086 6.738-9.51l-.643-5.626c-.25-2.186 1.46-4.103 3.661-4.103.572 0 1.136.133 1.648.389l4.918 2.459c1.532.766 2.989 1.677 4.349 2.72l10.465 8.023c1.643 1.26 3.523 2.176 5.529 2.693l2.928.756c5.52 1.424 11.27-1.303 13.659-6.479l1.478-3.203c1.883-4.08 6.695-5.892 10.802-4.066 1.051.467 2.188.708 3.338.708h16.808c4.898 0 9.729-1.14 14.11-3.331l5.027-2.513c4.05-2.025 7.161-5.537 8.684-9.801 1.672-4.682 1.281-9.854-1.076-14.232l-2.589-4.809c-.47-.871-.811-1.806-1.012-2.775l-.864-4.146c-.725-3.481 1.605-6.863 5.116-7.425 3.359-.537 5.666-3.668 5.185-7.035l-.824-5.7695c-.773-5.4138-5.066-9.6452-10.49-10.3406l-6.658-.8536c-2.422-.3105-4.88-.1957-7.262.3391l-9.749 2.1885c-6.865 1.5411-12.325 6.7346-14.209 13.514l-.33 1.1892c-1.038 3.7362-.669 7.7229 1.037 11.2059l3.391 6.923c2.972 6.069-.741 13.288-7.407 14.399-1.081.18-2.125.535-3.092 1.05l-8.372 4.466c-3.179 1.695-7.035 1.492-10.017-.529l-.764-.517c-4.956-3.358-5.324-10.525-.737-14.372 3.59-3.011 4.275-8.271 1.577-12.101l-6.763-9.598c-2.52-3.5778-3.383-8.0656-2.37-12.3232.595-2.4955 1.808-4.801 3.529-6.7033l1.172-1.2948c3.672-4.0584 5.705-9.3363 5.705-14.8093v-1.1958c0-4.0941-1.302-8.0821-3.717-11.3877-3.635-4.973-9.424-7.9129-15.584-7.9129h-2.503c-4.938 0-9.683 1.9134-13.24 5.3382l-1.003.9663c-4.301 4.1419-6.06 10.2671-4.612 16.06l1.919 7.6773c.449 1.7956-.212 3.6862-1.682 4.8105-2.767 2.1159-6.792.5414-7.389-2.8904l-1.188-6.8325c-.831-4.7794-5.357-7.9972-10.145-7.2124l-6.795 1.114c-8.401 1.3771-14.199 9.163-13.113 17.6062l3.029 23.5308c.62 4.813-4.569 8.232-8.747 5.763-.484-.286-1.007-.5-1.552-.637l-31.178-7.794c-8.418-2.7155-17.389 2.197-19.635 10.753l-5.206 19.833c-.683 2.601-3.034 4.414-5.722 4.414-2.629 0-4.943-1.735-5.679-4.259l-1.627-5.578c-.418-1.432-1.068-2.787-1.923-4.009l-3.342-4.774c-3.795-5.421-9.339-9.372-15.702-11.19l-5.167-1.477c-1.634-.466-3.111-1.368-4.273-2.607-3.263-3.4806-3.399-8.8532-.318-12.4948l6.364-7.5217c2.52-2.9781 1.884-7.487-1.362-9.651l-.624-.4161c-1.427-.9511-2.284-2.5523-2.284-4.267 0-4.3986-5.174-6.7561-8.493-3.8698l-9.25 8.0433c-2.449 2.1296-1.857 6.0822 1.109 7.4004 1.602.7119 2.634 2.3004 2.634 4.0533v4.2782c0 4.7341-3.587 8.6979-8.298 9.169-5.952.5952-10.885-4.5504-10.039-10.4722l.435-3.0431c.264-1.8491.079-3.7346-.54-5.4968l-2.782-7.9157c-1.835-5.2249-4.601-10.0747-8.163-14.3152l-1.173-1.396c-2.61-3.1075-5.697-5.7812-9.145-7.9215-6.076-3.771-13.084-5.7693-20.235-5.7693h-13.672c-1.256 0-2.51-.113-3.745-.3377-11.196-2.0356-21.968 5.2459-24.252 16.3942l-14.501 70.7795c-1.391 6.789-7.366 11.664-14.297 11.664h-7.963c-3.662 0-6.63-2.968-6.63-6.63 0-.904-.185-1.798-.543-2.628l-2.925-6.773c-3.899-9.03-10.822-16.42-19.578-20.899l-2.861-1.4642c-3.378-1.7281-6.987-2.9583-10.717-3.6522-10.172-1.8924-20.679.3004-29.245 6.1034l-2.131 1.443-11.628 10.077c-2.121 1.839-4.988 2.564-7.729 1.955l-1.067-.237c-2.234-.497-4.07-2.079-4.891-4.214-.749-1.946-.566-4.128.494-5.923l3.108-5.2599c1.121-1.8955 2.741-3.4461 4.683-4.4822 2.893-1.5429 5.029-4.2027 5.91-7.3607l2.782-9.9681c1.096-3.9291-.458-8.1178-3.852-10.3806-2.952-1.9675-4.549-5.4248-4.135-8.9476l.112-.9479c.681-5.7866-3.274-11.0982-9.013-12.105l-9.349-1.6403c-5.188-.91-10.295 1.9729-12.196 6.8842l-1.004 2.5938c-1.04 2.6859-3.623 4.4563-6.504 4.4563-2.851 0-5.415 1.7361-6.475 4.3838l-6.246 15.6162c-3.394 6.2665-11.618 7.9596-17.212 3.5435l-8.288-6.5435-7.226-5.4775c-11.02-8.3544-26.985-2.344-29.76 11.2041l-1.028 5.0196c-.9 4.3925-4.353 7.8131-8.753 8.6718l-1.149.2241c-6.262 1.2219-12.084-3.5737-12.084-9.9544v-2.3838c0-2.611-1.556-4.9708-3.956-5.9993-1.913-.82-3.321-2.5034-3.789-4.5316l-1.007-4.367c-1.609-6.9692-7.815-11.906-14.967-11.906h-.873c-8.248 0-15.236 6.1055-16.272 14.2883-.278 2.1912-.509 4.0691-.636 5.2117-.4 3.6-8.5 1.5-12.5 0l-16.334-5.5604c-3.642-1.2401-5.153-5.5706-3.072-8.8074.269-.4198.591-.8038.957-1.1428l9.093-8.4192c2.459-2.2763 3.856-5.4747 3.856-8.825v-1.0222c0-3.5549-1.85-6.8536-4.883-8.7072-2.606-1.5927-5.789-1.9342-8.674-.9308l-4.979 1.732c-1.3.4521-2.667.683-4.043.683h-.047c-1.242 0-2.476-.1926-3.658-.571l-2.198-.7034c-4.791-1.533-9.949.9166-11.788 5.5982-1.36 3.4608-.585 7.3962 1.985 10.0832l4.748 4.9635c5.397 5.6424 2.073 15.0249-5.673 16.0107-4.952.6303-9.549-2.6751-10.528-7.5703l-.214-1.0725c-.359-1.7955-1.174-3.4685-2.365-4.8587l-5.4-6.2992c-3.165-3.6928-6.942-6.814-11.165-9.2271l-8.1352-4.6489c-1.9837-1.1336-4.0745-2.0684-6.242-2.7909-5.7279-1.9093-11.855-2.2908-17.7755-1.1067l-8.8353 1.7671c-1.4165.2833-2.8576.426-4.3021.426-11.6735 0-21.3023 9.1421-21.9071 20.7999l-3.5334 68.0971c-.4825 9.299 6.9274 17.103 16.239 17.103h3.8577c6.2363 0 11.441-4.761 11.9956-10.972l.969-10.853c.2686-3.009 3.4375-4.843 6.1803-3.577.5738.265 1.1983.402 1.8303.402h10.3515c5.3566 0 10.6105-1.47 15.1892-4.25l6.247-3.793c.493-.299 1.058-.457 1.634-.457 2.219 0 3.741 2.234 2.93 4.299l-3.811 9.701-.98 3.5c-1.648 5.887-1.648 12.113 0 18 .651 2.326 1.554 4.575 2.691 6.707l2.054 3.853c2.77 5.194 6.913 9.527 11.976 12.527 3.799 2.251 8.02 3.696 12.401 4.243l3.138.392c9.272 1.16 18.68-.452 27.038-4.631l6.724-3.362c1.621-.811 3.057-1.948 4.217-3.34l2.556-3.067c4.162-4.995 11.907-4.76 15.759.479 2.856 3.884 2.539 9.251-.755 12.772l-.874.934c-4.379 4.681-4.11 12.033.601 16.382l.965.891c5.425 5.007 13.942 4.429 18.64-1.266l.617-.748c4.199-5.09 4.199-12.442 0-17.532l-6.613-8.016c-1.672-2.027-2.297-4.72-1.689-7.277l.717-3.011c.479-2.011 2.276-3.43 4.343-3.43.642 0 1.276.138 1.86.406l5.794 2.656c2.866 1.313 6.243-.099 7.32-3.062l5.304-11.746c1.033-2.285 3.308-3.754 5.815-3.754 3.524 0 6.381 2.857 6.381 6.381v3.847c0 1.173.202 2.336.596 3.44l2.11 5.909c1.514 4.239 3.864 8.13 6.912 11.442 4.487 4.878 10.318 8.319 16.757 9.89l3.327.811c4.83 1.178 9.825 1.521 14.771 1.014l6.386-.655c3.691-.379 7.209-1.755 10.178-3.981l1.166-.875c3.999-3 9.104-4.116 13.991-3.059l7.356 1.59c2.103.455 4.277-.357 5.568-2.077.578-.771.943-1.68 1.06-2.637l2.181-17.887c.094-.767.264-1.522.508-2.255l1.99-5.97c.384-1.151 1.462-1.928 2.675-1.928.628 0 1.237.209 1.732.594l5.822 4.528c1.475 1.148 3.478 1.346 5.15.51.825-.413 1.516-1.052 1.991-1.844l7.459-12.431c1.199-1.999 3.924-2.408 5.657-.848 1.02.917 1.449 2.323 1.116 3.653l-.951 3.807c-.335 1.34-.396 2.734-.177 4.098l1.669 10.433c1.621 6.809 5.394 12.931 10.753 17.432 2.811 2.362 6.001 4.232 9.435 5.531z" fill="#74b2e1" stroke="#7495e1" stroke-width="50"/><path d="m387.688 167.463 7.152 2.706c4.065 1.538 8.398 2.238 12.741 2.057 3.587-.15 7.125-.898 10.466-2.214l5.531-2.179c3.93-1.548 7.635-3.617 11.014-6.152l5.761-4.32c2.069-1.553 3.749-3.566 4.906-5.88 2.63-5.258 7.835-8.742 13.698-9.169l14.086-1.024c2.632-.192 5.276-.131 7.897.179l23.464 2.784c1.38.164 2.78.021 4.098-.418 4.764-1.588 9.937.83 11.773 5.504l1.148 2.921c.706 1.797.929 3.747.648 5.657l-.397 2.702c-.849 5.773 3.967 10.799 9.77 10.199l.805-.083c1.459-.151 2.926.189 4.17.966l1.781 1.114c3.613 2.258 8.3-.34 8.3-4.601 0-1.707.804-3.315 2.17-4.339l9.83-7.373c3.454-2.994 8.851-1.32 10.005 3.103l.097.372c.261 1.002.762 1.925 1.458 2.691l5.862 6.449c5.245 5.769 12.212 9.689 19.865 11.177l2.034.395c2.765.538 5.602.592 8.385.159l11.039-1.717c4.287-.667 7.602-4.113 8.103-8.422.79-6.795 8.203-10.634 14.208-7.358l2.809 1.532c.754.411 1.552.739 2.377.978l21.258 6.141 2.437.541c6.931 1.541 12.671 6.374 15.369 12.942l2.666 6.493c2.594 6.316 9.454 9.747 16.064 8.033 1.302-.337 2.547-.865 3.695-1.567l10.455-6.389c3.734-2.282 6.455-5.905 7.607-10.127 1.666-6.11 6.563-10.806 12.738-12.214l10.843-2.473c4.341-.99 7.243-5.086 6.738-9.51l-.643-5.626c-.25-2.186 1.46-4.103 3.661-4.103.572 0 1.136.133 1.648.389l4.918 2.459c1.532.766 2.989 1.677 4.349 2.72l10.465 8.023c1.643 1.26 3.523 2.176 5.529 2.693l2.928.756c5.52 1.424 11.27-1.303 13.659-6.479l1.478-3.203c1.883-4.08 6.695-5.892 10.802-4.066 1.051.467 2.188.708 3.338.708h16.808c4.898 0 9.729-1.14 14.11-3.331l5.027-2.513c4.05-2.025 7.161-5.537 8.684-9.801 1.672-4.682 1.281-9.854-1.076-14.232l-2.589-4.809c-.47-.871-.811-1.806-1.012-2.775l-.864-4.146c-.725-3.481 1.605-6.863 5.116-7.425 3.359-.537 5.666-3.668 5.185-7.035l-.824-5.7695c-.773-5.4138-5.066-9.6452-10.49-10.3406l-6.658-.8536c-2.422-.3105-4.88-.1957-7.262.3391l-9.749 2.1885c-6.865 1.5411-12.325 6.7346-14.209 13.514l-.33 1.1892c-1.038 3.7362-.669 7.7229 1.037 11.2059l3.391 6.923c2.972 6.069-.741 13.288-7.407 14.399-1.081.18-2.125.535-3.092 1.05l-8.372 4.466c-3.179 1.695-7.035 1.492-10.017-.529l-.764-.517c-4.956-3.358-5.324-10.525-.737-14.372 3.59-3.011 4.275-8.271 1.577-12.101l-6.763-9.598c-2.52-3.5778-3.383-8.0656-2.37-12.3232.595-2.4955 1.808-4.801 3.529-6.7033l1.172-1.2948c3.672-4.0584 5.705-9.3363 5.705-14.8093v-1.1958c0-4.0941-1.302-8.0821-3.717-11.3877-3.635-4.973-9.424-7.9129-15.584-7.9129h-2.503c-4.938 0-9.683 1.9134-13.24 5.3382l-1.003.9663c-4.301 4.1419-6.06 10.2671-4.612 16.06l1.919 7.6773c.449 1.7956-.212 3.6862-1.682 4.8105-2.767 2.1159-6.792.5414-7.389-2.8904l-1.188-6.8325c-.831-4.7794-5.357-7.9972-10.145-7.2124l-6.795 1.114c-8.401 1.3771-14.199 9.163-13.113 17.6062l3.029 23.5308c.62 4.813-4.569 8.232-8.747 5.763-.484-.286-1.007-.5-1.552-.637l-31.178-7.794c-8.418-2.7155-17.389 2.197-19.635 10.753l-5.206 19.833c-.683 2.601-3.034 4.414-5.722 4.414-2.629 0-4.943-1.735-5.679-4.259l-1.627-5.578c-.418-1.432-1.068-2.787-1.923-4.009l-3.342-4.774c-3.795-5.421-9.339-9.372-15.702-11.19l-5.167-1.477c-1.634-.466-3.111-1.368-4.273-2.607-3.263-3.4806-3.399-8.8532-.318-12.4948l6.364-7.5217c2.52-2.9781 1.884-7.487-1.362-9.651l-.624-.4161c-1.427-.9511-2.284-2.5523-2.284-4.267 0-4.3986-5.174-6.7561-8.493-3.8698l-9.25 8.0433c-2.449 2.1296-1.857 6.0822 1.109 7.4004 1.602.7119 2.634 2.3004 2.634 4.0533v4.2782c0 4.7341-3.587 8.6979-8.298 9.169-5.952.5952-10.885-4.5504-10.039-10.4722l.435-3.0431c.264-1.8491.079-3.7346-.54-5.4968l-2.782-7.9157c-1.835-5.2249-4.601-10.0747-8.163-14.3152l-1.173-1.396c-2.61-3.1075-5.697-5.7812-9.145-7.9215-6.076-3.771-13.084-5.7693-20.235-5.7693h-13.672c-1.256 0-2.51-.113-3.745-.3377-11.196-2.0356-21.968 5.2459-24.252 16.3942l-14.501 70.7795c-1.391 6.789-7.366 11.664-14.297 11.664h-7.963c-3.662 0-6.63-2.968-6.63-6.63 0-.904-.185-1.798-.543-2.628l-2.925-6.773c-3.899-9.03-10.822-16.42-19.578-20.899l-2.861-1.4642c-3.378-1.7281-6.987-2.9583-10.717-3.6522-10.172-1.8924-20.679.3004-29.245 6.1034l-2.131 1.443-11.628 10.077c-2.121 1.839-4.988 2.564-7.729 1.955l-1.067-.237c-2.234-.497-4.07-2.079-4.891-4.214-.749-1.946-.566-4.128.494-5.923l3.108-5.2599c1.121-1.8955 2.741-3.4461 4.683-4.4822 2.893-1.5429 5.029-4.2027 5.91-7.3607l2.782-9.9681c1.096-3.9291-.458-8.1178-3.852-10.3806-2.952-1.9675-4.549-5.4248-4.135-8.9476l.112-.9479c.681-5.7866-3.274-11.0982-9.013-12.105l-9.349-1.6403c-5.188-.91-10.295 1.9729-12.196 6.8842l-1.004 2.5938c-1.04 2.6859-3.623 4.4563-6.504 4.4563-2.851 0-5.415 1.7361-6.475 4.3838l-6.246 15.6162c-3.394 6.2665-11.618 7.9596-17.212 3.5435l-8.288-6.5435-7.226-5.4775c-11.02-8.3544-26.985-2.344-29.76 11.2041l-1.028 5.0196c-.9 4.3925-4.353 7.8131-8.753 8.6718l-1.149.2241c-6.262 1.2219-12.084-3.5737-12.084-9.9544v-2.3838c0-2.611-1.556-4.9708-3.956-5.9993-1.913-.82-3.321-2.5034-3.789-4.5316l-1.007-4.367c-1.609-6.9692-7.815-11.906-14.967-11.906h-.873c-8.248 0-15.236 6.1055-16.272 14.2883-.278 2.1912-.509 4.0691-.636 5.2117-.4 3.6-8.5 1.5-12.5 0l-16.334-5.5604c-3.642-1.2401-5.153-5.5706-3.072-8.8074.269-.4198.591-.8038.957-1.1428l9.093-8.4192c2.459-2.2763 3.856-5.4747 3.856-8.825v-1.0222c0-3.5549-1.85-6.8536-4.883-8.7072-2.606-1.5927-5.789-1.9342-8.674-.9308l-4.979 1.732c-1.3.4521-2.667.683-4.043.683h-.047c-1.242 0-2.476-.1926-3.658-.571l-2.198-.7034c-4.791-1.533-9.949.9166-11.788 5.5982-1.36 3.4608-.585 7.3962 1.985 10.0832l4.748 4.9635c5.397 5.6424 2.073 15.0249-5.673 16.0107-4.952.6303-9.549-2.6751-10.528-7.5703l-.214-1.0725c-.359-1.7955-1.174-3.4685-2.365-4.8587l-5.4-6.2992c-3.165-3.6928-6.942-6.814-11.165-9.2271l-8.1352-4.6489c-1.9837-1.1336-4.0745-2.0684-6.242-2.7909-5.7279-1.9093-11.855-2.2908-17.7755-1.1067l-8.8353 1.7671c-1.4165.2833-2.8576.426-4.3021.426-11.6735 0-21.3023 9.1421-21.9071 20.7999l-3.5334 68.0971c-.4825 9.299 6.9274 17.103 16.239 17.103h3.8577c6.2363 0 11.441-4.761 11.9956-10.972l.969-10.853c.2686-3.009 3.4375-4.843 6.1803-3.577.5738.265 1.1983.402 1.8303.402h10.3515c5.3566 0 10.6105-1.47 15.1892-4.25l6.247-3.793c.493-.299 1.058-.457 1.634-.457 2.219 0 3.741 2.234 2.93 4.299l-3.811 9.701-.98 3.5c-1.648 5.887-1.648 12.113 0 18 .651 2.326 1.554 4.575 2.691 6.707l2.054 3.853c2.77 5.194 6.913 9.527 11.976 12.527 3.799 2.251 8.02 3.696 12.401 4.243l3.138.392c9.272 1.16 18.68-.452 27.038-4.631l6.724-3.362c1.621-.811 3.057-1.948 4.217-3.34l2.556-3.067c4.162-4.995 11.907-4.76 15.759.479 2.856 3.884 2.539 9.251-.755 12.772l-.874.934c-4.379 4.681-4.11 12.033.601 16.382l.965.891c5.425 5.007 13.942 4.429 18.64-1.266l.617-.748c4.199-5.09 4.199-12.442 0-17.532l-6.613-8.016c-1.672-2.027-2.297-4.72-1.689-7.277l.717-3.011c.479-2.011 2.276-3.43 4.343-3.43.642 0 1.276.138 1.86.406l5.794 2.656c2.866 1.313 6.243-.099 7.32-3.062l5.304-11.746c1.033-2.285 3.308-3.754 5.815-3.754 3.524 0 6.381 2.857 6.381 6.381v3.847c0 1.173.202 2.336.596 3.44l2.11 5.909c1.514 4.239 3.864 8.13 6.912 11.442 4.487 4.878 10.318 8.319 16.757 9.89l3.327.811c4.83 1.178 9.825 1.521 14.771 1.014l6.386-.655c3.691-.379 7.209-1.755 10.178-3.981l1.166-.875c3.999-3 9.104-4.116 13.991-3.059l7.356 1.59c2.103.455 4.277-.357 5.568-2.077.578-.771.943-1.68 1.06-2.637l2.181-17.887c.094-.767.264-1.522.508-2.255l1.99-5.97c.384-1.151 1.462-1.928 2.675-1.928.628 0 1.237.209 1.732.594l5.822 4.528c1.475 1.148 3.478 1.346 5.15.51.825-.413 1.516-1.052 1.991-1.844l7.459-12.431c1.199-1.999 3.924-2.408 5.657-.848 1.02.917 1.449 2.323 1.116 3.653l-.951 3.807c-.335 1.34-.396 2.734-.177 4.098l1.669 10.433c1.621 6.809 5.394 12.931 10.753 17.432 2.811 2.362 6.001 4.232 9.435 5.531z" fill="#74b2e1" stroke="#74b2e1" stroke-width="40"/><path d="m599.796 80.1852-1.481 14.8148 19.259-20.7407-10.37-5.926 1.481-13.3333-19.259 20.7407z" stroke="#f5a2ee" stroke-linecap="round" stroke-linejoin="round" stroke-width="2"/><path clip-rule="evenodd" d="m133.43 33.93c1.875-1.8747 4.418-2.9279 7.07-2.9279s5.195 1.0532 7.07 2.9279l2.93 2.9275 2.93-2.9275c.922-.9551 2.026-1.7169 3.246-2.241s2.532-.8 3.86-.8115c1.328-.0116 2.645.2415 3.874.7443 1.228.5028 2.345 1.2453 3.284 2.1842.939.939 1.681 2.0555 2.184 3.2844.503 1.229.756 2.5458.744 3.8736-.011 1.3278-.287 2.64-.811 3.86-.524 1.2201-1.286 2.3235-2.241 3.246l-17.07 17.0725-17.07-17.0725c-1.875-1.8753-2.928-4.4184-2.928-7.07 0-2.6517 1.053-5.1947 2.928-7.07z" fill-rule="evenodd" stroke="#f5a2ee" stroke-linejoin="round" stroke-width="2"/><g clip-path="url(#a)"><path clip-rule="evenodd" d="m687.78 167.688c2.416-1.094 5.167-1.183 7.648-.248 2.482.935 4.49 2.817 5.585 5.232l1.71 3.772 3.773-1.707c1.2-.568 2.501-.892 3.828-.953 1.326-.06 2.652.144 3.898.602 1.247.457 2.39 1.158 3.363 2.061.973.904 1.756 1.993 2.304 3.202.547 1.21.849 2.516.886 3.844.037 1.327-.19 2.648-.669 3.887-.479 1.238-1.199 2.369-2.12 3.326-.92.957-2.022 1.721-3.241 2.248l-21.992 9.96-9.957-21.994c-1.093-2.415-1.183-5.166-.248-7.648.935-2.481 2.817-4.49 5.232-5.584z" fill-rule="evenodd" stroke="#e1d8bd" stroke-linejoin="round" stroke-width="2"/></g><g stroke-width="2"><path d="m199.217 159.865c.709-.709 1.857-.709 2.566 0l14.852 14.852c.709.709.709 1.857 0 2.566l-14.852 14.852c-.709.709-1.857.709-2.566 0l-14.852-14.852c-.709-.709-.709-1.857 0-2.566z" stroke="#e2e1b5"/><path d="m794.5 61c0 11.0457-8.954 20-20 20s-20-8.9543-20-20 8.954-20 20-20 20 8.9543 20 20z" stroke="#f5a2ee"/><path d="m541.253 135.745c.644-.729 1.844-.402 2.03.552l2.411 12.355c.074.379.33.697.684.851l11.544 5.018c.892.387.952 1.629.102 2.101l-11.004 6.111c-.338.188-.562.529-.599.914l-1.205 12.529c-.093.968-1.255 1.409-1.967.747l-9.212-8.578c-.283-.263-.677-.371-1.054-.287l-12.289 2.726c-.949.211-1.728-.759-1.317-1.64l5.311-11.413c.163-.35.143-.757-.053-1.09l-6.39-10.845c-.494-.838.188-1.878 1.153-1.76l12.495 1.524c.383.047.765-.098 1.021-.387z" stroke="#e2e1b5" stroke-linejoin="round"/><path d="m259.54 51.8144 31.034 25.7283-37.444 14.07z" stroke="#f5a2ee" stroke-linejoin="round"/></g><g fill="#f5a2ee"><path d="m820.531 151.245-1.393-.204c-2.786-.409-3.978-1.101-4.422-3.366l-3.418-15.508c-.071-.398-.142-.797-.105-1.05.279-1.9 2.849-1.782 4.369-1.559 7.49.97 11.557-2.056 12.003-5.096.241-1.646-1.108-3.914-2.547-6.454l-2.862-4.301c-4.644-7.149-6.125-12.929-5.419-17.7417 2.099-14.3109 23.857-18.8818 40.448-16.4484 4.939.7245 6.131 1.4168 6.683 3.8265l3.544 15.5267c.179.5437.124.9236.068 1.3039-.204 1.393-1.672 1.695-3.318 1.454l-.507-.075c-7.598-1.114-10.883.991-11.254 3.524-.316 2.153 1.231 4.838 5.263 10.863 4.897 7.187 6.594 13.257 5.888 18.07-2.192 14.944-26.05 19.724-43.021 17.235z"/><path d="m806.461 149.799-9.157 15.539c-.921 1.477-1.888 2.316-3.165 2.407-.638.046-1.422-.155-2.225-.611-7.35-4.095-24.011-12.787-30.814-16.409-.802-.456-1.641-1.422-1.723-2.571-.046-.639.164-1.295.748-2.107l8.637-12.037c-6.247 4.167-11.892 7.778-14.355 9.237l-.739.438 2.707 21.75c.11 1.532-.821 2.882-2.353 2.991l-25.435 3.226c-1.404.101-2.754-.83-2.991-2.353l-12.804-103.9279-.019-.2554c-.091-1.2767.976-2.5078 2.244-2.7266l25.444-3.0986.255-.0182c1.405-.1002 2.508.976 2.736 2.3713l6.68 54.0614c4.944-4.459 25.738-22.3681 31.355-22.7689 1.022-.0729 2.207.3558 3.347 1.9427l11.827 16.4802c.565.73.875 1.477.93 2.243.091 1.277-.593 2.481-2.07 3.356-3.083 1.76-10.078 6.237-17.438 10.997 9.138 2.171 28.753 14.503 29.09 19.227.055.766-.146 1.55-.712 2.617z"/><path d="m669.222 172.72-24.641-6.605c-1.46-.479-2.356-1.851-1.877-3.31l17.349-64.3593c.479-1.4594 1.973-2.3163 3.311-1.8773l14.347 3.9006c7.246.088 13.889 1.19 19.97 3.186 4.135 1.357 7.989 3.16 11.48 5.249 1.664 1.085 2.075 2.298 1.596 3.757-.16.487-.441.933-.762 1.501l-9.155 15.991c-.924 1.583-2.419 2.035-3.879 1.556-.365-.12-.811-.401-1.258-.682-1.746-1.247-3.694-2.29-5.761-2.969-1.703-.559-3.485-.874-5.591-1.026l-11.819 43.811-.079.243c-.44 1.338-1.893 2.073-3.231 1.634z"/><path d="m618.582 179.145-1.507.295c-28.516 5.576-46.644-11.095-50.378-30.19-3.512-17.964 5.491-39.288 34.132-44.888 31.154-6.0918 37.965 21.4 38.775 25.546 1.13 5.778-.323 11.019-7.244 14.98-5.511 3.165-14.537 6.364-21.02 7.893-2.01.393-2.81-.364-3.607-1.773-2.318-3.851-6.301-11.549-6.4-12.052-.27-1.382.612-2.206 2.172-2.902 6.237-2.785 7.067-3.208 6.724-4.967-.221-1.131-3.394-4.684-8.67-3.652-6.03 1.179-10.023 7.437-8.5 15.226 1.744 8.919 10.241 17.691 25.944 14.621.879-.172 1.884-.368 2.739-.666l.251-.049c1.759-.344 4.115.369 4.533 2.505.245 1.256-1.35 10.437-2.4 15.076-.612 2.207-1.901 4.285-5.544 4.997z"/><path d="m506.901 145.403-.254-.036-26.414-5.176c-1.503-.343-2.355-1.628-2.139-3.148l19.441-99.5028c.18-1.2673 1.483-2.2457 2.877-2.0476l.253.036 23.029 4.4362c5.304-.9271 10.499-1.0938 15.441-.3915 23.444 3.3317 42.141 23.7008 38.665 48.1591-3.332 23.4446-21.623 37.5226-47.982 33.7776-5.322-.757-10.41-2.256-15.028-4.334l-4.995 26.052c-.325 1.376-1.627 2.355-2.894 2.175zm17.916-79.68-5.175 26.4145c2.607 1.6635 6.03 3.0549 9.451 3.5411 13.94 1.981 15.867-11.5788 15.993-12.4659 1.261-8.8708-4.953-16.089-14.331-17.4216-1.774-.2522-3.838-.2868-5.938-.0681z"/><path d="m450.188 132.784c0 24.96-25.344 38.912-43.52 38.912-20.864 0-39.168-15.104-39.168-37.632 0-26.368 19.712-40.064 42.24-40.064 28.288 0 40.448 22.144 40.448 38.784zm-40.448 14.464c9.088 0 13.184-7.424 13.184-14.72 0-2.432-.512-14.848-13.568-14.848-10.752 0-13.824 9.088-13.824 14.848 0 8.832 6.912 14.72 14.208 14.72z"/><path d="m361.986 120.649-9.912 14.359c-1.514 2.16-2.911 3.168-4.787 2.763-.376-.081-.751-.162-1.099-.369-19.278-8.356-23.906-20.879-17.692-52.6681l-9.275-2.528c-1.349-.4225-2.205-1.9169-1.908-3.2931l5.989-20.4444c.423-1.3492 1.792-2.2319 3.293-1.9075l7.9 2.2306c1.277-4.7002 2.636-9.7757 4.173-15.0745.45-1.4743 1.214-3.7974 4.467-3.0945l.5.1081 23.403 6.2354c2.1.5847 2.831 2.0521 2.371 4.179-1.386 5.2007-2.95 10.6245-4.461 15.7982l8.525 2.3657c1.376.2974 2.231 1.7918 1.907 3.2932l-5.989 20.4443c-.395 1.2241-1.64 2.1338-3.016 1.8365l-.25-.0541-8.176-2.1596c-2.46 11.3848-2.824 20.3428 2.167 23.9088 1.241.923 2.634 1.748 2.337 3.124-.054.251-.26.599-.467.947z"/><path d="m333.748 142.626-3.408 17.066c-.514 2.408-1.431 3.866-3.032 4.32-1.232.349-10.41.824-18.209-3.217-5.46 5.142-11.691 8.506-17.971 10.287-20.564 5.834-42.768-4.897-48.393-24.723-4.192-14.777.232-39.05 24.614-45.966 6.157-1.7471 12.575-2.1043 17.971-1.3733.495-1.0716 1.498-1.7554 2.976-2.1746l.616-.1747 21.827-4.1963c3.271-.662 4.588.6943 5.007 2.172l.174.6157c1.455 11.6952 2.771 22.8972 5.076 31.0242 2.096 7.389 4.953 12.299 9.487 13.275 1.406.266 2.971.621 3.32 1.852.07.247.051.651-.055 1.213zm-38.631 1.247c-1.277-3.097-2.502-6.475-3.585-10.293-.908-3.201-1.728-6.561-2.53-10.325-2.176-2.044-5.99-2.825-9.561-1.811-7.758 2.2-9.937 10.935-8.155 17.215 1.956 6.896 8.435 11.444 16.44 9.173 2.339-.663 4.909-1.924 7.391-3.959z"/><path d="m229.98 129.24-6.656 16.128c-1.024 2.432-2.176 3.712-4.096 3.712-.384 0-.768 0-1.152-.128-20.608-4.096-27.776-15.36-28.416-47.744l-9.6-.512c-1.408-.128-2.56-1.408-2.56-2.816l1.536-21.248c.128-1.408 1.28-2.56 2.816-2.56l8.192.512c.256-4.864.512-10.112.896-15.616.128-1.536.384-3.968 3.712-3.968h.512l24.192 1.152c2.176.128 3.2 1.408 3.2 3.584-.256 5.376-.64 11.008-1.024 16.384l8.832.512c1.408 0 2.56 1.28 2.56 2.816l-1.536 21.248c-.128 1.28-1.152 2.432-2.56 2.432h-.256l-8.448-.384c0 11.648 1.536 20.48 7.168 22.912 1.408.64 2.944 1.152 2.944 2.56 0 .256-.128.64-.256 1.024z"/><path d="m186.188 130.784c0 24.96-25.344 38.912-43.52 38.912-20.864 0-39.168-15.104-39.168-37.632 0-26.368 19.712-40.064 42.24-40.064 28.288 0 40.448 22.144 40.448 38.784zm-40.448 14.464c9.088 0 13.184-7.424 13.184-14.72 0-2.432-.512-14.848-13.568-14.848-10.752 0-13.824 9.088-13.824 14.848 0 8.832 6.912 14.72 14.208 14.72z"/><path d="m60.196 140.312h-.256l-26.88-1.408c-1.536-.128-2.56-1.28-2.56-2.816l5.248-101.248c0-1.28 1.152-2.432 2.56-2.432h.256l23.424 1.152c5.12-1.664 10.24-2.56 15.232-2.56 23.68 0 45.056 17.536 45.056 42.24 0 23.68-16.128 40.192-42.752 40.192-5.376 0-10.624-.768-15.488-2.176l-1.28 26.496c-.128 1.408-1.28 2.56-2.56 2.56zm6.528-81.408-1.408 26.88c2.816 1.28 6.4 2.176 9.856 2.176 14.08 0 14.08-13.696 14.08-14.592 0-8.96-7.168-15.232-16.64-15.232-1.792 0-3.84.256-5.888.768z"/></g><g mask="url(#b)"><path d="m399.548 383.926c-21.474 10.197-46.344 10.445-68.018.679l-334.52119-150.732c-49.54411-22.325-63.48641-86.139-27.76741-127.092l14.8211-16.9925c23.24964-26.6563 61.1072-35.144 93.512-20.9656l12.4114 5.4304c13.1181 5.7395 27.5221 7.8993 41.7461 6.2592l73.628-8.4892c7.605-.8769 15.296-.6712 22.843.6108l42.649 7.2447c12.154 2.0646 24.619 1.3277 36.445-2.1547l40.654-11.971c11.68-3.4392 23.984-4.2011 35.999-2.2291l28.891 4.7419c9.808 1.6099 19.83 1.4007 29.563-.6172l79.513-16.4851c19.168-3.9741 39.127-.8719 56.185 8.7326l30.77 17.3256c6.825 3.8429 14.172 6.6755 21.81 8.4095l58.747 13.3366c18.6 4.2221 38.093 1.7461 55.045-6.9928l19.541-10.073c14.171-7.3045 30.181-10.265 46.027-8.5108l81.269 8.9974c3.753.4155 7.409 1.4683 10.808 3.1129 25.1 12.1423 24.97 47.9404-.218 59.8994z" fill="#c4a2f5" opacity=".3"/><path d="m417.548 403.926c-21.474 10.197-46.344 10.445-68.018.679l-334.5212-150.732c-49.544-22.325-63.4864-86.139-27.7674-127.092l14.82113-16.992c23.24967-26.6568 61.10717-35.1445 93.51197-20.9661l12.4115 5.4304c13.118 5.7395 27.522 7.8997 41.746 6.2597l73.628-8.4897c7.605-.8769 15.296-.6712 22.843.6108l42.649 7.2447c12.154 2.0642 24.619 1.3272 36.445-2.1547l40.654-11.971c11.68-3.4392 23.984-4.2011 35.999-2.2291l28.891 4.7419c9.808 1.6099 19.83 1.4007 29.563-.6172l79.513-16.4851c19.168-3.9741 39.127-.8719 56.185 8.7326l30.77 17.3256c6.825 3.8432 14.172 6.6752 21.81 8.4092l58.747 13.337c18.6 4.222 38.093 1.746 55.045-6.993l19.541-10.073c14.171-7.3044 30.181-10.2649 46.027-8.5107l81.269 8.9977c3.753.415 7.409 1.468 10.808 3.113 25.1 12.142 24.97 47.94-.218 59.899z" fill="#c4a2f5" opacity=".3"/><g fill="#e3f5a2"><path d="m400.548 425.926c-21.474 10.197-46.344 10.445-68.018.679l-334.52119-150.732c-49.54411-22.325-63.48641-86.139-27.76741-127.092l14.8211-16.992c23.24964-26.657 61.1072-35.1445 93.512-20.966l12.4114 5.43c13.1181 5.74 27.5221 7.9 41.7461 6.26l73.628-8.49c7.605-.877 15.296-.671 22.843.611l42.649 7.245c12.154 2.064 24.619 1.327 36.445-2.155l40.654-11.971c11.68-3.439 23.984-4.201 35.999-2.229l28.891 4.742c9.808 1.61 19.83 1.401 29.563-.617l79.513-16.4854c19.168-3.9741 39.127-.8719 56.185 8.7324l30.77 17.326c6.825 3.843 14.172 6.675 21.81 8.409l58.747 13.337c18.6 4.222 38.093 1.746 55.045-6.993l19.541-10.073c14.171-7.304 30.181-10.265 46.027-8.511l81.269 8.998c3.753.415 7.409 1.468 10.808 3.113 25.1 12.142 24.97 47.94-.218 59.899z" opacity=".3"/><path d="m407.548 436.926c-21.474 10.197-46.344 10.445-68.018.679l-334.52119-150.732c-49.54411-22.325-63.48641-86.139-27.76741-127.092l14.82112-16.992c23.24958-26.657 61.10718-35.145 93.51198-20.966l12.4114 5.43c13.1181 5.74 27.5221 7.9 41.7461 6.26l73.628-8.49c7.605-.877 15.296-.671 22.843.611l42.649 7.245c12.154 2.064 24.619 1.327 36.445-2.155l40.654-11.971c11.68-3.439 23.984-4.201 35.999-2.229l28.891 4.742c9.808 1.61 19.83 1.401 29.563-.617l79.513-16.485c19.168-3.974 39.127-.872 56.185 8.732l30.77 17.326c6.825 3.843 14.172 6.675 21.81 8.409l58.747 13.337c18.6 4.222 38.093 1.746 55.045-6.993l19.541-10.073c14.171-7.304 30.181-10.265 46.027-8.511l81.269 8.998c3.753.415 7.409 1.468 10.808 3.113 25.1 12.142 24.97 47.94-.218 59.899z" opacity=".3"/><path d="m394.548 451.926c-21.474 10.197-46.344 10.445-68.018.679l-334.52119-150.732c-49.54411-22.325-63.48641-86.139-27.76741-127.092l14.8211-16.992c23.24964-26.657 61.1072-35.145 93.512-20.966l12.4114 5.43c13.1177 5.74 27.5221 7.9 41.7461 6.26l73.628-8.49c7.605-.877 15.296-.671 22.843.611l42.649 7.245c12.154 2.064 24.619 1.327 36.445-2.155l40.654-11.971c11.68-3.439 23.984-4.201 35.999-2.229l28.891 4.742c9.808 1.61 19.83 1.401 29.563-.617l79.513-16.485c19.168-3.974 39.127-.872 56.185 8.732l30.77 17.326c6.825 3.843 14.172 6.675 21.81 8.409l58.747 13.337c18.6 4.222 38.093 1.746 55.045-6.993l19.541-10.073c14.171-7.304 30.181-10.265 46.027-8.511l81.269 8.998c3.753.415 7.409 1.468 10.808 3.113 25.1 12.142 24.97 47.94-.218 59.899z" opacity=".3"/><path d="m402.548 463.926c-21.474 10.197-46.344 10.445-68.018.679l-334.52118805-150.732c-49.54411195-22.325-63.48641195-86.139-27.76741195-127.092l14.8211-16.992c23.2496-26.657 61.1072-35.145 93.512-20.966l12.4114 5.43c13.1181 5.74 27.5221 7.9 41.7461 6.26l73.628-8.49c7.605-.877 15.296-.671 22.843.611l42.649 7.245c12.154 2.064 24.619 1.327 36.445-2.155l40.654-11.971c11.68-3.439 23.984-4.201 35.999-2.229l28.891 4.742c9.808 1.61 19.83 1.401 29.563-.617l79.513-16.485c19.168-3.974 39.127-.872 56.185 8.732l30.77 17.326c6.825 3.843 14.172 6.675 21.81 8.409l58.747 13.337c18.6 4.222 38.093 1.746 55.045-6.993l19.541-10.073c14.171-7.304 30.181-10.265 46.027-8.511l81.269 8.998c3.753.415 7.409 1.468 10.808 3.113 25.1 12.142 24.97 47.94-.218 59.899z" opacity=".3"/></g></g></svg>