<svg xmlns="http://www.w3.org/2000/svg"  viewBox="0 0 16 16" width="100px" height="100px"><path fill="#839cb2" d="M1,12.5c-0.276,0-0.5-0.224-0.5-0.5V4c0-0.276,0.224-0.5,0.5-0.5h14c0.276,0,0.5,0.224,0.5,0.5v8 c0,0.276-0.224,0.5-0.5,0.5H1z"/><path fill="#66798f" d="M15,4v8H1V4H15 M15,3H1C0.45,3,0,3.45,0,4v8c0,0.55,0.45,1,1,1h14c0.55,0,1-0.45,1-1V4 C16,3.45,15.55,3,15,3L15,3z"/><path fill="#fff" d="M13 8L13 5 11 5 11 8 9.5 8 12 11 14.5 8zM7.25 5L5.5 7.52 3.75 5 2 5 2 11 4 11 4 7.657 5.5 9.8 7 7.593 7 11 9 11 9 5z"/></svg>