<svg width="1050" height="654" viewBox="0 0 1050 654" fill="none" xmlns="http://www.w3.org/2000/svg">
<path d="M600.407 601.77L615.438 605.426C628.041 608.491 641.143 602.786 647.484 591.47L702.305 493.636C708.901 481.863 721.344 474.572 734.839 474.572H741.695C750.781 474.572 759.176 479.421 763.716 487.291C769.699 497.661 782.107 502.452 793.507 498.793L844.442 482.443C857.561 478.232 864.163 463.602 858.64 450.979L856.076 445.118C853.93 440.213 849.085 437.044 843.732 437.044C834.04 437.044 827.518 427.118 831.365 418.222L838.224 402.36C840.649 396.753 840.921 390.448 838.989 384.653L835.249 373.431C831.988 363.649 831.502 353.154 833.845 343.112L834.845 338.827C841.896 308.61 867.667 286.413 898.597 283.918L909.42 283.045C915.975 282.517 922.562 283.539 928.649 286.029C939.216 290.352 951.091 290.174 961.524 285.537L981.223 276.782C991.732 272.111 999.347 262.662 1001.68 251.4C1003.79 241.201 1001.34 230.588 994.969 222.347L985.065 209.531L971.067 195.533C966.59 191.056 968.149 183.46 974.028 181.109C979.522 178.911 981.336 172.032 977.639 167.411L969.882 157.715C964.96 151.562 956.612 149.319 949.268 152.175L930.981 159.286C923.406 162.232 916.806 167.24 911.929 173.742L902.749 185.983C897.901 192.446 897.358 201.172 901.366 208.186L902.689 210.501C908.312 220.342 903.582 232.87 892.858 236.538L890.801 237.242C880.094 240.905 868.963 232.948 868.963 221.632C868.963 220.603 868.866 219.577 868.675 218.566L862.684 186.9C861.41 180.164 858.794 173.755 854.992 168.051C849.565 159.911 841.916 153.5 832.953 149.578L824.779 146.002C814.472 141.493 803.345 139.166 792.096 139.166H772.374C770.317 139.166 768.268 138.923 766.269 138.443C751.885 134.991 737.502 144.144 734.538 158.637L722.559 217.198C720.563 226.956 710.649 232.919 701.094 230.109C699.647 229.683 698.263 229.067 696.978 228.276L694.917 227.008C687.665 222.546 682.282 215.601 679.767 207.466L674.401 190.104C668.218 170.101 648.64 157.359 627.847 159.806C625.193 160.118 622.573 160.675 620.022 161.468L579.452 174.09C574.003 175.785 569.202 179.104 565.692 183.602L548.339 205.836C542.013 213.94 529.209 211.736 525.958 201.982C524.82 198.571 525.161 194.839 526.896 191.689L541.806 164.63C549.512 150.646 544.238 133.061 530.109 125.624C518.936 119.744 505.226 121.909 496.409 130.947L493.159 134.278C478.823 148.972 454.175 145.304 444.268 127.325C437.564 115.158 423.23 109.034 409.872 112.851L407.553 113.513C402.573 114.936 398.223 118.005 395.213 122.22C390.787 128.415 389.731 136.405 392.395 143.537L416.577 208.282C420.408 218.539 412.824 229.467 401.875 229.467C394.009 229.467 387.358 223.644 386.318 215.847L382.098 184.195C381.435 179.22 380.057 174.367 378.008 169.786L369.751 151.33C364.218 138.963 354.331 129.063 341.972 123.513L325.408 116.077C312.576 110.316 305.161 96.7053 307.277 82.7996L307.735 79.7906C310.05 64.5759 299.746 50.3123 284.575 47.7299C269.223 45.1169 254.657 55.4347 252.029 70.7836L229.227 203.948C228.21 209.883 223.065 214.222 217.044 214.222C214.662 214.222 212.33 213.533 210.33 212.239L205.654 209.213C197.921 204.21 192.793 196.046 191.641 186.908L179.663 91.8855C177.561 75.2097 162.407 63.3475 145.715 65.3113C129.217 67.2522 117.278 81.9958 118.809 98.5363L119.114 101.83C120.692 118.87 108.767 134.206 91.8639 136.875C82.6419 138.331 74.4939 143.689 69.5023 151.578L57.4877 170.569C47.0776 187.024 44.795 207.346 51.2954 225.7C57.4209 242.995 70.7305 256.794 87.7936 263.54L90.2851 264.525C103.982 269.94 119.047 270.855 133.299 267.137L155.284 261.402C161.942 259.665 168.794 258.786 175.675 258.786H187.58C198.217 258.786 208.538 255.166 216.844 248.521L219.789 246.165C228.4 239.276 239.553 236.413 250.417 238.303L262.759 240.449C276.41 242.823 289.471 233.902 292.227 220.323L298.746 188.194C300.65 178.806 312.783 176.126 318.466 183.837C319.548 185.307 320.25 187.021 320.508 188.828L322.952 205.937C325.661 224.897 335.105 242.248 349.558 254.815L354.125 258.786L394.361 288.705C398.016 291.423 401.977 293.702 406.163 295.497L411.148 297.633C424.726 303.452 434.803 315.285 438.386 329.616L444.414 353.731C447.061 364.316 441.044 375.138 430.657 378.477L426.424 379.837C420.379 381.78 416.28 387.403 416.28 393.753C416.28 396.741 417.197 399.658 418.906 402.11L430.339 418.514C437.529 428.83 435.202 442.996 425.09 450.47C419.512 454.593 412.382 456.007 405.653 454.324L397.916 452.39C391.791 450.859 386.811 446.415 384.594 440.504C382.402 434.658 377.504 430.243 371.463 428.667L366.761 427.441C358.736 425.347 350.197 426.844 343.363 431.543L342.535 432.112C337.853 435.331 334.209 439.841 332.046 445.095L331.165 447.233C328.607 453.446 328.768 460.446 331.61 466.535C334.03 471.722 338.224 475.874 343.436 478.243L347.345 480.02C356.006 483.957 366.042 483.429 374.242 478.605C378.731 475.965 383.844 474.572 389.052 474.572H392.142C401.674 474.572 410.901 477.93 418.205 484.055L426.361 490.896C436.506 499.405 450.886 500.67 462.361 494.063L464.501 492.831C474.935 486.824 488.036 488.133 497.073 496.086C505.658 503.64 517.964 505.237 528.192 500.123L552.387 488.025C554.681 486.879 557.093 485.986 559.581 485.364C574.174 481.716 589.47 487.758 597.631 500.394L604.301 510.721C614.254 526.133 615.409 545.631 607.345 562.11L594.304 588.757C593.687 590.019 593.366 591.405 593.366 592.81C593.366 597.063 596.275 600.764 600.407 601.77Z" fill="black" stroke="black" stroke-width="93.8201"/>
<path d="M861.67 479.71L861.027 479.916L774.804 502.295C768.945 503.933 767.05 501.702 765.952 498.271L765.609 497.199L758.741 470.554C757.652 466.41 758.759 463.219 760.501 460.535C770.96 443.714 784.414 414.824 784.139 413.966C784.002 413.537 783.29 413.529 782.432 413.803L755.642 420.954C753.282 421.709 747.87 421.785 746.429 417.282L746.36 417.067L739.081 389.136C737.786 384.349 739.751 380.883 743.397 379.717L743.826 379.58L820.406 359.576C822.765 358.821 831.481 356.506 833.813 363.798L834.019 364.441L840.75 390.657C841.839 394.801 841.504 398.927 839.53 403.104C835.652 411.673 826.909 427.945 818.886 443.514C818.303 444.646 818.225 445.144 818.363 445.572C818.5 446.001 818.997 446.079 819.855 445.804L849.863 437.624C854.65 436.329 857.755 438.646 858.921 442.292L859.127 442.935L866.406 470.867C867.427 474.796 866.603 478.133 861.67 479.71Z" fill="#90F5AE"/>
<path d="M634.001 607.927L599.766 600.649C596.217 599.85 594.375 598.321 594.019 596.098C593.769 594.542 594.186 592.878 595.048 591.144L621.642 533.742C620.868 533.182 620.245 532.141 619.364 530.915L562.7 443.542C561.783 442.093 561.124 440.83 560.946 439.718C560.447 436.606 562.793 434.177 565.986 432.752L599.659 416.631C600.512 416.266 601.366 415.901 602.255 415.759C606.257 415.117 609.611 417.543 611.774 421.073L647.826 476.633C657.768 454.742 667.266 432.921 675.413 414.055C676.39 411.617 677.733 410.034 680.178 409.641C681.512 409.427 683.585 409.551 686.022 410.528L721.895 422.332C724.777 423.238 726.36 424.58 726.682 426.581C727.217 429.916 717.633 478.203 644.431 603.289C642.6 606.091 640.813 607.746 638.145 608.174C637.034 608.352 635.664 608.344 634.001 607.927Z" fill="#90F5AE"/>
<path d="M549.754 488.624L516.879 505.962C514.177 507.538 512.15 508.213 510.349 508.213C508.097 508.213 506.071 507.087 503.594 504.385L481.077 478.266C470.269 486.597 458.335 494.703 449.554 500.783C447.077 502.359 445.05 503.485 442.799 503.485C441.448 503.485 439.871 503.034 438.295 501.683L411.725 480.292C409.249 478.266 408.123 476.239 408.123 474.438C408.123 472.862 408.798 471.286 410.6 469.709C418.255 462.954 432.891 450.345 446.176 437.961L416.229 403.06C414.427 401.033 413.752 399.232 413.752 397.656C413.752 395.404 415.553 393.377 418.255 392.026L452.256 374.463C454.057 373.562 455.633 373.112 457.209 373.112C460.137 373.112 462.839 374.688 464.865 377.165L486.481 402.384L509.899 378.741C511.475 377.165 513.051 376.039 515.078 376.039C516.879 376.039 518.905 376.94 521.382 378.967L550.879 402.384C552.906 403.96 553.807 405.311 553.807 406.887C553.807 414.543 527.237 440.212 522.733 444.491L551.78 478.041C553.356 479.842 554.032 481.418 554.032 482.994C554.032 485.246 552.456 487.273 549.754 488.624Z" fill="#90F5AE"/>
<path d="M387.238 455.43C387.238 470.967 374.629 483.576 359.092 483.576C343.33 483.576 330.721 470.967 330.721 455.43C330.721 439.893 343.33 427.059 359.092 427.059C374.629 427.059 387.238 439.893 387.238 455.43Z" fill="#90F5AE"/>
<path d="M948.43 292.704L946.065 293.44C941.335 294.911 938.918 294.72 936.491 291.467L919.271 269.47C918.855 268.891 918.44 268.313 918.306 267.883C917.302 264.658 921.469 262.89 924.049 262.088C936.667 257.926 940.814 250.033 939.209 244.873C938.339 242.078 934.474 239.507 930.26 236.574L922.448 231.93C909.643 224.123 902.897 216.082 900.355 207.912C892.796 183.616 923.828 159.813 951.993 151.05C960.379 148.441 962.796 148.632 965.505 152.034L982.94 173.964C983.637 174.691 983.838 175.336 984.039 175.981C984.774 178.346 982.677 179.942 979.882 180.811L979.022 181.079C966.122 185.092 962.515 190.931 963.852 195.231C964.99 198.886 969.486 201.968 980.465 208.456C993.7 216.129 1001.01 224.466 1003.55 232.636C1011.45 258.007 977.241 283.74 948.43 292.704Z" fill="#90F5AE"/>
<path d="M865.12 223.549L864.103 230.91C862.377 243.401 863.89 253.838 871.863 263.578C873.048 264.878 874.97 267.417 874.631 269.87C874.446 271.209 873.592 272.455 871.876 273.354C871.815 273.8 847.544 286.585 847.544 286.585C845.067 288.061 842.744 288.422 840.737 288.145C836.722 287.59 802.668 270.837 808.154 231.134L809.202 223.551C812.439 200.13 802.419 188.744 786.26 185.602L770.834 265.983C770.525 268.214 768.241 269.944 766.01 269.635L765.564 269.574L721.262 261.179C718.617 260.586 717.11 258.332 717.479 255.655L739.529 140.502C740.092 138.08 742.376 136.349 744.607 136.658L745.053 136.719L769.85 141.51C778.795 140.927 787.171 141.176 795.201 142.285C840.48 148.542 871.007 180.947 865.12 223.549Z" fill="#90F5AE"/>
<path d="M703.228 239.968L699.971 270.408C699.453 274.708 698.078 277.407 695.346 278.457C693.244 279.265 677.239 281.557 662.933 275.717C654.185 285.592 643.804 292.477 633.085 296.596C597.985 310.086 557.38 294.815 544.375 260.976C534.681 235.754 538.572 192.527 580.188 176.533C590.697 172.494 601.884 170.848 611.455 171.271C612.15 169.315 613.8 167.957 616.322 166.988L617.373 166.584L654.945 155.762C660.572 154.082 663.093 156.249 664.062 158.772L664.466 159.822C668.874 180.08 672.96 199.496 678.291 213.368C683.137 225.979 688.923 234.128 697.022 235.116C699.528 235.36 702.324 235.732 703.132 237.834C703.293 238.254 703.326 238.966 703.228 239.968ZM635.749 248.292C633.018 243.07 630.336 237.347 627.832 230.831C625.732 225.366 623.761 219.611 621.758 213.144C617.62 209.909 610.814 209.148 604.719 211.49C591.478 216.579 589.049 232.228 593.169 242.947C597.692 254.717 609.766 261.655 623.428 256.405C627.422 254.87 631.722 252.252 635.749 248.292Z" fill="#90F5AE"/>
<path d="M432.497 305.186L399.848 292.577C396.47 291.226 394.894 289.425 394.894 287.173C394.894 285.597 395.57 284.021 396.695 282.444L432.047 229.98C431.371 229.305 430.921 228.179 430.245 226.828L388.139 131.582C387.464 130.006 387.013 128.655 387.013 127.529C387.013 124.376 389.715 122.35 393.093 121.449L428.894 110.866C429.795 110.641 430.696 110.416 431.596 110.416C435.65 110.416 438.577 113.343 440.153 117.171L466.948 177.741C480.233 157.701 493.067 137.661 504.101 120.323C505.452 118.072 507.028 116.721 509.505 116.721C510.856 116.721 512.882 117.171 515.134 118.522L548.684 135.86C551.386 137.211 552.737 138.787 552.737 140.814C552.737 144.191 535.624 190.351 443.53 302.259C441.279 304.736 439.252 306.087 436.55 306.087C435.424 306.087 434.073 305.862 432.497 305.186Z" fill="#90F5AE"/>
<path d="M388.441 243.885L364.841 258.345C362.11 260.012 359.787 260.372 357.779 260.094C356.887 259.97 316.677 246.668 322.952 201.392C326.692 174.404 315.532 163.083 299.473 160.857L298.358 160.702L287.136 241.665C286.765 244.341 284.48 246.07 282.027 245.73L237.419 239.547C234.743 239.176 233.014 236.891 233.385 234.214L258.672 51.7709C259.012 49.3175 261.328 47.3654 264.005 47.7363L308.612 53.919C311.065 54.259 312.764 56.7676 312.423 59.221L304.386 117.21C307.093 117.358 309.77 117.729 312.223 118.069C354.154 123.881 384.147 153.498 378.695 197.752C376.909 212.28 378.263 223.834 387.986 234.047C389.17 235.348 391.314 237.918 390.974 240.372C390.819 241.487 390.188 242.763 388.441 243.885Z" fill="#90F5AE"/>
<path d="M212.231 220.85L205.425 250.745C204.437 255.281 202.635 257.906 199.315 258.524C199.315 258.524 179.906 260.074 165.203 249.983C154.083 259.152 141.82 264.64 129.645 266.906C92.6762 273.784 55.7485 251.338 49.1174 215.698C44.0927 188.691 55.8661 147.336 99.6973 139.181C109.216 137.41 119.106 137.631 127.61 139.026L120.557 78.9577C120.078 75.1532 123.208 72.2806 127.636 71.4568L166.056 64.9956C172.255 63.8424 174.561 66.3907 175.137 69.4899L175.261 70.154C175.354 73.1142 185.445 166.743 188.287 182.018C191.664 200.17 196.833 213.179 206.65 215.475C209.291 216.129 211.932 216.783 212.303 218.775C212.427 219.439 212.55 220.103 212.231 220.85ZM143.061 218.374C139.658 208.701 136.589 197.133 133.953 182.965C130.694 178.991 123.92 177.045 117.278 178.281C103.996 180.752 97.8495 194.492 100.156 206.889C102.462 219.286 113.073 228.305 127.24 225.669C132.111 224.763 137.398 222.405 143.061 218.374Z" fill="#90F5AE"/>
<mask id="mask0_5_434" style="mask-type:alpha" maskUnits="userSpaceOnUse" x="48" y="47" width="957" height="562">
<path d="M861.67 479.71L861.027 479.916L774.804 502.295C768.945 503.933 767.05 501.702 765.952 498.271L765.609 497.199L758.741 470.554C757.652 466.41 758.759 463.219 760.501 460.535C770.96 443.714 784.414 414.824 784.139 413.966C784.002 413.537 783.29 413.529 782.432 413.803L755.642 420.954C753.282 421.709 747.87 421.785 746.429 417.282L746.36 417.067L739.081 389.136C737.786 384.349 739.751 380.883 743.397 379.717L743.826 379.58L820.406 359.576C822.765 358.821 831.481 356.506 833.813 363.798L834.019 364.441L840.75 390.657C841.839 394.801 841.504 398.927 839.53 403.104C835.652 411.673 826.909 427.945 818.886 443.514C818.303 444.646 818.225 445.144 818.363 445.572C818.5 446.001 818.997 446.079 819.855 445.804L849.863 437.624C854.65 436.329 857.755 438.646 858.921 442.292L859.127 442.935L866.406 470.867C867.427 474.796 866.603 478.133 861.67 479.71Z" fill="#F01C20"/>
<path d="M634.001 607.927L599.766 600.649C596.217 599.85 594.375 598.321 594.019 596.098C593.769 594.542 594.186 592.878 595.048 591.144L620.109 537.05C620.999 535.128 620.599 532.634 619.364 530.915V530.915L562.7 443.542C561.783 442.093 561.124 440.83 560.946 439.718C560.447 436.606 562.793 434.177 565.986 432.752L599.659 416.631C600.512 416.266 601.366 415.901 602.255 415.759C606.257 415.117 609.611 417.543 611.774 421.073L636.167 458.666C641.211 466.438 652.838 465.561 656.6 457.094C663.327 441.958 669.702 427.28 675.413 414.055C676.39 411.617 677.733 410.034 680.178 409.641C681.512 409.427 683.585 409.551 686.022 410.528L721.895 422.332C724.777 423.238 726.36 424.58 726.682 426.581C727.217 429.916 717.633 478.203 644.431 603.289C642.6 606.091 640.813 607.746 638.145 608.174C637.034 608.352 635.664 608.344 634.001 607.927Z" fill="#F01C20"/>
<path d="M549.754 488.624L516.879 505.962C514.177 507.538 512.15 508.213 510.349 508.213C508.097 508.213 506.071 507.087 503.594 504.385L488.326 486.675C484.26 481.958 477.22 481.248 472.184 484.912C464.07 490.816 455.97 496.34 449.554 500.783C447.077 502.359 445.05 503.485 442.799 503.485C441.448 503.485 439.871 503.034 438.295 501.683L411.725 480.292C409.249 478.266 408.123 476.239 408.123 474.438C408.123 472.862 408.798 471.286 410.6 469.709C416.682 464.343 427.17 455.281 437.886 445.573C442.546 441.35 442.943 434.193 438.847 429.42L416.229 403.06C414.427 401.033 413.752 399.232 413.752 397.656C413.752 395.404 415.553 393.377 418.255 392.026L452.256 374.463C454.057 373.562 455.633 373.112 457.209 373.112C460.137 373.112 462.839 374.688 464.865 377.165L478.2 392.722C482.66 397.926 490.613 398.212 495.436 393.343L509.899 378.741C511.475 377.165 513.051 376.039 515.078 376.039C516.879 376.039 518.905 376.94 521.382 378.967L550.879 402.384C552.906 403.96 553.807 405.311 553.807 406.887C553.807 412.383 540.115 427.162 530.722 436.646C526.313 441.099 525.961 448.219 530.063 452.957L551.78 478.041C553.356 479.842 554.032 481.418 554.032 482.994C554.032 485.246 552.456 487.273 549.754 488.624Z" fill="#F01C20"/>
<path d="M387.238 455.43C387.238 470.967 374.629 483.576 359.092 483.576C343.33 483.576 330.721 470.967 330.721 455.43C330.721 439.893 343.33 427.059 359.092 427.059C374.629 427.059 387.238 439.893 387.238 455.43Z" fill="#F01C20"/>
<path d="M948.43 292.704L946.065 293.44C941.335 294.911 938.918 294.72 936.491 291.467L919.271 269.47C918.855 268.891 918.44 268.313 918.306 267.883C917.302 264.658 921.469 262.89 924.049 262.088C936.667 257.926 940.814 250.033 939.209 244.873C938.339 242.078 934.474 239.507 930.26 236.574L922.448 231.93C909.643 224.123 902.897 216.082 900.355 207.912C892.796 183.616 923.828 159.813 951.993 151.05C960.379 148.441 962.796 148.632 965.505 152.034L982.94 173.964C983.637 174.691 983.838 175.336 984.039 175.981C984.774 178.346 982.677 179.942 979.882 180.811L979.022 181.079C966.122 185.092 962.515 190.931 963.852 195.231C964.99 198.886 969.486 201.968 980.465 208.456C993.7 216.129 1001.01 224.466 1003.55 232.636C1011.45 258.007 977.241 283.74 948.43 292.704Z" fill="#F01C20"/>
<path d="M865.12 223.549L864.103 230.91C862.377 243.401 863.89 253.838 871.863 263.578C873.048 264.878 874.97 267.417 874.631 269.87V269.87C874.234 272.743 870.441 274.29 867.902 275.69C861.583 279.176 849.758 285.418 847.817 286.441C847.635 286.537 847.456 286.639 847.278 286.74C844.901 288.087 842.672 288.412 840.737 288.145C836.722 287.59 802.668 270.837 808.154 231.134L809.202 223.551C811.619 206.062 806.644 195.283 797.24 189.637C791.678 186.298 785.267 190.776 784.044 197.148L770.834 265.983C770.525 268.214 768.241 269.944 766.01 269.635L765.564 269.574L721.262 261.179C718.617 260.586 717.11 258.332 717.479 255.655L739.529 140.502C740.092 138.08 742.376 136.349 744.607 136.658L745.053 136.719L768.368 141.224C769.352 141.414 770.356 141.474 771.356 141.419C779.737 140.958 787.623 141.238 795.201 142.285C840.48 148.542 871.007 180.947 865.12 223.549Z" fill="#F01C20"/>
<path d="M703.228 239.968L699.971 270.408C699.453 274.708 698.078 277.407 695.346 278.457C693.629 279.117 682.635 280.767 670.869 278.167C666.006 277.092 660.78 278.28 657.109 281.645C649.729 288.411 641.512 293.358 633.085 296.596C597.985 310.086 557.38 294.815 544.375 260.976C534.681 235.754 538.572 192.527 580.188 176.533C588.327 173.405 596.872 171.712 604.758 171.304C608.734 171.098 612.605 168.416 616.322 166.988V166.988L617.373 166.584L654.945 155.762C660.572 154.082 663.093 156.249 664.062 158.772L664.145 158.985C664.359 159.543 664.53 160.116 664.657 160.699C668.993 180.639 673.036 199.697 678.291 213.368C683.137 225.979 688.923 234.128 697.022 235.116C699.528 235.36 702.324 235.732 703.132 237.834C703.293 238.254 703.326 238.966 703.228 239.968ZM628.937 253.661C633.332 250.953 634.072 245.184 631.911 240.496C630.515 237.465 629.149 234.257 627.832 230.831C626.118 226.373 624.491 221.721 622.862 216.647C622.131 214.37 620.794 212.227 618.576 211.334C614.574 209.724 609.434 209.678 604.719 211.49C591.478 216.579 589.049 232.228 593.169 242.947C597.692 254.717 609.766 261.655 623.428 256.405C625.22 255.716 627.074 254.809 628.937 253.661Z" fill="#F01C20"/>
<path d="M432.497 305.186L399.848 292.577C396.47 291.226 394.894 289.425 394.894 287.173C394.894 285.597 395.57 284.021 396.695 282.444L430.01 233.004C431.193 231.248 431.192 228.722 430.245 226.828V226.828L388.139 131.582C387.464 130.006 387.013 128.655 387.013 127.529C387.013 124.376 389.715 122.35 393.093 121.449L428.894 110.866C429.795 110.641 430.696 110.416 431.596 110.416C435.65 110.416 438.577 113.343 440.153 117.171L458.283 158.154C462.031 166.627 473.65 167.602 478.707 159.838C487.747 145.959 496.366 132.477 504.101 120.323C505.452 118.072 507.028 116.721 509.505 116.721C510.856 116.721 512.882 117.171 515.134 118.522L548.684 135.86C551.386 137.211 552.737 138.787 552.737 140.814C552.737 144.191 535.624 190.351 443.53 302.259C441.279 304.736 439.252 306.087 436.55 306.087C435.424 306.087 434.073 305.862 432.497 305.186Z" fill="#F01C20"/>
<path d="M388.441 243.885L364.841 258.345C362.11 260.012 359.787 260.372 357.779 260.094C356.887 259.97 316.677 246.668 322.952 201.392C326.692 174.404 315.532 163.083 299.473 160.857V160.857C298.857 160.772 298.289 161.202 298.203 161.818L287.136 241.665C286.765 244.341 284.48 246.07 282.027 245.73L237.419 239.547C234.743 239.176 233.014 236.891 233.385 234.214L258.672 51.7709C259.012 49.3175 261.328 47.3654 264.005 47.7363L308.612 53.919C311.065 54.259 312.764 56.7676 312.423 59.221L305.469 109.399C304.886 113.604 308.018 117.486 312.223 118.069V118.069C354.154 123.881 384.147 153.498 378.695 197.752C376.909 212.28 378.263 223.834 387.986 234.047C389.17 235.348 391.314 237.918 390.974 240.372C390.819 241.487 390.188 242.763 388.441 243.885Z" fill="#F01C20"/>
<path d="M212.433 219.818C212.439 220.523 212.152 221.196 211.996 221.883L205.425 250.745C204.498 255.001 202.854 257.576 199.911 258.387C199.518 258.495 199.122 258.54 198.714 258.559C195.975 258.69 184.305 258.916 172.963 254.174C168.139 252.156 162.469 252.352 158.111 255.242C148.974 261.3 139.282 265.113 129.645 266.906C92.6762 273.784 55.7485 251.338 49.1174 215.698C44.0927 188.691 55.8661 147.336 99.6973 139.181C103.811 138.415 107.994 138.022 112.104 137.935C119.899 137.769 126.704 131.31 125.795 123.566L120.557 78.9577C120.078 75.1532 123.208 72.2806 127.636 71.4568L166.056 64.9956C172.255 63.8424 174.561 66.3907 175.137 69.4899V69.4899C175.22 69.932 175.27 70.3518 175.308 70.7999C176.058 79.6328 185.545 167.283 188.287 182.018C191.664 200.17 196.833 213.179 206.65 215.475C209.291 216.129 211.932 216.783 212.303 218.775C212.367 219.119 212.431 219.463 212.433 219.818ZM135.491 222.895C140.206 220.64 141.835 214.988 140.34 209.979C138.235 202.924 136.285 194.972 134.518 185.926C134.139 183.986 133.356 182.074 131.744 180.931C128.129 178.367 122.66 177.279 117.278 178.281C103.996 180.752 97.8495 194.492 100.156 206.889C102.462 219.286 113.073 228.305 127.24 225.669C129.871 225.18 132.623 224.267 135.491 222.895Z" fill="#F01C20"/>
</mask>
<g mask="url(#mask0_5_434)">
<path d="M1071.67 105.747L1225.48 315.681L-172.44 369.025L-68.2477 233.084L12.3777 155.65L78.1184 105.747L186.032 88.5398L357.206 33.4753H413.024L486.207 61.0076L549.467 88.5398L620.169 172.857L688.39 155.65L791.343 33.4753L879.41 0.780762L947.632 33.4753L993.526 88.5398L1071.67 105.747Z" fill="#90F5E1"/>
<path d="M1071.67 152.658L1225.48 362.591L-172.44 415.935L-68.2477 279.994L12.3777 202.56L78.1184 152.658L186.032 135.45L357.206 80.3855H413.024L486.207 107.918L549.467 135.45L620.169 219.768L688.39 202.56L791.343 80.3855L879.41 47.6909L947.632 80.3855L993.526 135.45L1071.67 152.658Z" fill="#90ECF5"/>
<path d="M1071.67 194.877L1225.48 404.81L-172.44 458.154L-68.2477 322.213L12.3777 244.779L78.1184 194.877L186.032 177.669L357.206 122.604H413.024L486.207 150.137L549.467 177.669L620.169 261.986L688.39 244.779L791.343 122.604L879.41 89.9099L947.632 122.604L993.526 177.669L1071.67 194.877Z" fill="#90DDF5"/>
<path d="M1071.67 248.823L1225.48 458.757L-172.44 512.1L-68.2477 376.16L12.3777 298.725L78.1184 248.823L186.032 231.616L357.206 176.551H413.024L486.207 204.083L549.467 231.616L620.169 315.933L688.39 298.725L791.343 176.551L879.41 143.856L947.632 176.551L993.526 231.616L1071.67 248.823Z" fill="#90C2F5"/>
<path d="M1071.67 291.042L1225.48 500.976L-172.44 554.32L-68.2477 418.379L12.3777 340.945L78.1184 291.042L186.032 273.835L357.206 218.77H413.024L486.207 246.302L549.467 273.835L620.169 358.152L688.39 340.945L791.343 218.77L879.41 186.076L947.632 218.77L993.526 273.835L1071.67 291.042Z" fill="#90ABF5"/>
<path d="M1071.67 344.989L1225.48 554.922L-172.44 608.266L-68.2477 472.326L12.3777 394.891L78.1184 344.989L186.032 327.781L357.206 272.717H413.024L486.207 300.249L549.467 327.781L620.169 412.099L688.39 394.891L791.343 272.717L879.41 240.022L947.632 272.717L993.526 327.781L1071.67 344.989Z" fill="#9090F5"/>
<path d="M1071.67 417.699L1225.48 627.633L-172.44 680.977L-68.2477 545.036L12.3777 467.602L78.1184 417.699L186.032 400.492L357.206 345.427H413.024L486.207 372.959L549.467 400.492L620.169 484.809L688.39 467.602L791.343 345.427L879.41 312.733L947.632 345.427L993.526 400.492L1071.67 417.699Z" fill="#A690F5"/>
<path d="M1071.67 483.373L1225.48 693.307L-172.44 746.651L-68.2477 610.71L12.3777 533.276L78.1184 483.373L186.032 466.166L357.206 411.101H413.024L486.207 438.634L549.467 466.166L620.169 550.483L688.39 533.276L791.343 411.101L879.41 378.407L947.632 411.101L993.526 466.166L1071.67 483.373Z" fill="#C490F5"/>
<path d="M1071.67 527.938L1225.48 737.872L-172.44 791.215L-68.2477 655.275L12.3777 577.84L78.1184 527.938L186.032 510.73L357.206 455.666H413.024L486.207 483.198L549.467 510.73L620.169 595.048L688.39 577.84L791.343 455.666L879.41 422.971L947.632 455.666L993.526 510.73L1071.67 527.938Z" fill="#F090F5"/>
</g>
</svg>
