<svg width="1080" height="1080" viewBox="0 0 1080 1080" fill="none" xmlns="http://www.w3.org/2000/svg">
<rect width="1080" height="1080" rx="84.375" fill="#F7BB86"/>
<path d="M618.47 811.895L633.5 815.551C646.103 818.616 659.206 812.911 665.546 801.595L720.367 703.761C726.964 691.988 739.406 684.697 752.901 684.697H759.758C768.843 684.697 777.238 689.546 781.778 697.416C787.761 707.786 800.169 712.577 811.569 708.918L862.504 692.568C875.624 688.357 882.226 673.727 876.703 661.104L874.139 655.243C871.993 650.338 867.147 647.169 861.794 647.169C852.102 647.169 845.58 637.243 849.427 628.347L856.286 612.485C858.711 606.878 858.984 600.573 857.052 594.778L853.311 583.556C850.05 573.774 849.565 563.279 851.908 553.237L852.907 548.952C859.958 518.735 885.73 496.538 916.659 494.043L927.483 493.17C934.038 492.642 940.625 493.664 946.711 496.154C957.279 500.477 969.153 500.299 979.586 495.662L999.286 486.907C1009.79 482.236 1017.41 472.787 1019.74 461.525C1021.85 451.326 1019.4 440.713 1013.03 432.472L1003.13 419.656L989.129 405.658C984.653 401.181 986.212 393.585 992.09 391.234C997.585 389.036 999.398 382.157 995.701 377.536L987.945 367.84C983.022 361.687 974.674 359.444 967.33 362.3L949.044 369.411C941.468 372.357 934.869 377.365 929.992 383.867L920.811 396.108C915.964 402.571 915.421 411.297 919.429 418.311L920.752 420.626C926.375 430.467 921.645 442.995 910.921 446.663L908.863 447.367C898.157 451.03 887.025 443.073 887.025 431.757C887.025 430.728 886.929 429.702 886.737 428.691L880.747 397.025C879.472 390.289 876.856 383.88 873.054 378.176C867.627 370.036 859.978 363.625 851.015 359.703L842.841 356.127C832.535 351.618 821.407 349.291 810.158 349.291H790.436C788.38 349.291 786.331 349.048 784.332 348.568C769.947 345.116 755.565 354.269 752.6 368.762L740.622 427.323C738.626 437.081 728.711 443.044 719.156 440.234C717.709 439.808 716.325 439.192 715.041 438.401L712.98 437.133C705.728 432.671 700.344 425.726 697.83 417.591L692.463 400.229C686.281 380.226 666.703 367.484 645.909 369.931C643.255 370.243 640.636 370.8 638.084 371.593L597.514 384.215C592.066 385.91 587.265 389.229 583.754 393.727L566.401 415.961C560.075 424.065 547.271 421.861 544.02 412.107C542.883 408.696 543.223 404.964 544.959 401.814L559.869 374.755C567.574 360.771 562.301 343.186 548.172 335.749C536.999 329.869 523.289 332.034 514.471 341.072L511.221 344.403C496.886 359.097 472.238 355.429 462.331 337.45C455.626 325.283 441.292 319.159 427.935 322.976L425.616 323.638C420.636 325.061 416.285 328.13 413.275 332.345C408.85 338.54 407.794 346.53 410.458 353.662L434.64 418.407C438.471 428.664 430.886 439.592 419.937 439.592C412.071 439.592 405.421 433.769 404.381 425.972L400.161 394.32C399.497 389.345 398.12 384.492 396.07 379.911L387.814 361.455C382.281 349.088 372.394 339.188 360.034 333.638L343.471 326.202C330.639 320.441 323.223 306.83 325.339 292.925L325.797 289.916C328.112 274.701 317.809 260.437 302.637 257.855C287.286 255.242 272.72 265.56 270.091 280.909L247.289 414.073C246.273 420.008 241.128 424.347 235.107 424.347C232.724 424.347 230.393 423.658 228.393 422.364L223.717 419.338C215.984 414.335 210.855 406.171 209.703 397.033L197.726 302.011C195.624 285.335 180.47 273.472 163.777 275.436C147.28 277.377 135.34 292.121 136.872 308.661L137.177 311.955C138.755 328.995 126.829 344.331 109.926 347C100.704 348.456 92.5564 353.814 87.5648 361.703L75.5502 380.694C65.1401 397.149 62.8575 417.471 69.3579 435.825C75.4834 453.12 88.793 466.919 105.856 473.665L108.348 474.65C122.045 480.065 137.11 480.98 151.361 477.262L173.346 471.527C180.004 469.79 186.857 468.911 193.738 468.911H205.643C216.28 468.911 226.6 465.291 234.906 458.646L237.852 456.29C246.463 449.401 257.615 446.538 268.48 448.428L280.821 450.574C294.472 452.948 307.534 444.027 310.289 430.448L316.808 398.319C318.713 388.931 330.846 386.251 336.528 393.962C337.611 395.432 338.312 397.146 338.571 398.953L341.015 416.062C343.723 435.022 353.168 452.373 367.62 464.94L372.187 468.911L412.423 498.83C416.078 501.548 420.039 503.827 424.226 505.622L429.21 507.758C442.788 513.577 452.865 525.41 456.448 539.741L462.477 563.856C465.123 574.441 459.106 585.263 448.719 588.602L444.487 589.962C438.442 591.905 434.343 597.528 434.343 603.878C434.343 606.866 435.259 609.783 436.968 612.235L448.401 628.639C455.591 638.955 453.265 653.121 443.152 660.595C437.574 664.718 430.445 666.132 423.715 664.449L415.978 662.515C409.854 660.984 404.873 656.54 402.657 650.629C400.465 644.783 395.567 640.368 389.525 638.792L384.823 637.566C376.799 635.472 368.26 636.969 361.426 641.668L360.597 642.237C355.916 645.456 352.271 649.966 350.108 655.22L349.228 657.358C346.67 663.571 346.831 670.571 349.672 676.66C352.093 681.847 356.287 685.999 361.498 688.368L365.408 690.145C374.069 694.082 384.104 693.554 392.305 688.73C396.793 686.09 401.907 684.697 407.114 684.697H410.205C419.736 684.697 428.964 688.055 436.267 694.18L444.424 701.021C454.569 709.53 468.948 710.795 480.423 704.188L482.564 702.956C492.997 696.949 506.098 698.258 515.136 706.211C523.72 713.765 536.027 715.362 546.254 710.248L570.449 698.15C572.743 697.004 575.156 696.111 577.643 695.489C592.236 691.841 607.533 697.883 615.693 710.519L622.363 720.846C632.316 736.258 633.471 755.756 625.407 772.235L612.367 798.882C611.749 800.144 611.428 801.53 611.428 802.935C611.428 807.188 614.337 810.889 618.47 811.895Z" fill="black" stroke="black" stroke-width="93.8201"/>
<path d="M879.733 689.835L879.089 690.041L792.867 712.42C787.008 714.058 785.112 711.827 784.015 708.396L783.672 707.324L776.804 680.679C775.715 676.535 776.822 673.344 778.563 670.66C789.022 653.839 802.476 624.949 802.202 624.091C802.065 623.662 801.353 623.654 800.495 623.928L773.704 631.079C771.345 631.834 765.932 631.91 764.491 627.407L764.423 627.192L757.143 599.261C755.849 594.474 757.813 591.008 761.459 589.842L761.888 589.705L838.468 569.701C840.827 568.946 849.543 566.631 851.876 573.923L852.081 574.566L858.812 600.782C859.901 604.926 859.566 609.052 857.593 613.229C853.714 621.798 844.971 638.07 836.949 653.639C836.365 654.771 836.288 655.269 836.425 655.697C836.562 656.126 837.06 656.204 837.918 655.929L867.925 647.749C872.712 646.454 875.817 648.771 876.983 652.417L877.189 653.06L884.469 680.992C885.489 684.921 884.665 688.258 879.733 689.835Z" fill="#90F5AE"/>
<path d="M652.063 818.052L617.829 810.774C614.28 809.975 612.438 808.446 612.081 806.223C611.832 804.667 612.249 803.003 613.111 801.269L639.704 743.867C638.93 743.307 638.307 742.266 637.426 741.04L580.762 653.667C579.846 652.218 579.187 650.955 579.008 649.843C578.509 646.731 580.856 644.302 584.048 642.877L617.721 626.756C618.575 626.391 619.428 626.026 620.318 625.884C624.32 625.242 627.673 627.668 629.836 631.198L665.889 686.758C675.831 664.867 685.329 643.046 693.476 624.18C694.453 621.742 695.795 620.159 698.241 619.766C699.575 619.552 701.647 619.676 704.084 620.653L739.957 632.457C742.839 633.363 744.423 634.705 744.744 636.706C745.279 640.041 735.695 688.328 662.493 813.414C660.663 816.216 658.876 817.871 656.208 818.299C655.096 818.477 653.727 818.469 652.063 818.052Z" fill="#90F5AE"/>
<path d="M567.816 698.749L534.941 716.087C532.239 717.663 530.213 718.338 528.412 718.338C526.16 718.338 524.133 717.212 521.657 714.51L499.14 688.391C488.332 696.722 476.398 704.828 467.616 710.908C465.139 712.484 463.113 713.61 460.861 713.61C459.51 713.61 457.934 713.159 456.358 711.808L429.788 690.417C427.311 688.391 426.185 686.364 426.185 684.563C426.185 682.987 426.861 681.411 428.662 679.834C436.318 673.079 450.954 660.47 464.239 648.086L434.291 613.185C432.49 611.158 431.814 609.357 431.814 607.781C431.814 605.529 433.616 603.502 436.318 602.151L470.318 584.588C472.12 583.687 473.696 583.237 475.272 583.237C478.199 583.237 480.901 584.813 482.928 587.29L504.544 612.509L527.961 588.866C529.537 587.29 531.114 586.164 533.14 586.164C534.941 586.164 536.968 587.065 539.445 589.092L568.942 612.509C570.968 614.085 571.869 615.436 571.869 617.012C571.869 624.668 545.299 650.337 540.796 654.616L569.843 688.166C571.419 689.967 572.094 691.543 572.094 693.119C572.094 695.371 570.518 697.398 567.816 698.749Z" fill="#90F5AE"/>
<path d="M405.301 665.555C405.301 681.092 392.691 693.701 377.155 693.701C361.393 693.701 348.784 681.092 348.784 665.555C348.784 650.018 361.393 637.184 377.155 637.184C392.691 637.184 405.301 650.018 405.301 665.555Z" fill="#90F5AE"/>
<path d="M966.493 502.829L964.128 503.565C959.398 505.036 956.98 504.845 954.553 501.592L937.333 479.595C936.918 479.016 936.502 478.438 936.368 478.008C935.365 474.783 939.531 473.015 942.111 472.213C954.729 468.051 958.877 460.158 957.271 454.998C956.402 452.203 952.536 449.632 948.322 446.699L940.51 442.055C927.706 434.248 920.959 426.207 918.417 418.037C910.859 393.741 941.891 369.938 970.056 361.175C978.441 358.566 980.859 358.757 983.568 362.159L1001 384.089C1001.7 384.816 1001.9 385.461 1002.1 386.106C1002.84 388.471 1000.74 390.067 997.945 390.936L997.084 391.204C984.184 395.217 980.577 401.056 981.915 405.356C983.052 409.011 987.548 412.093 998.528 418.581C1011.76 426.254 1019.07 434.591 1021.61 442.761C1029.51 468.132 995.303 493.865 966.493 502.829Z" fill="#90F5AE"/>
<path d="M883.183 433.674L882.166 441.035C880.439 453.526 881.952 463.963 889.926 473.703C891.11 475.003 893.032 477.542 892.693 479.995C892.508 481.334 891.654 482.58 889.939 483.479C889.877 483.925 865.607 496.71 865.607 496.71C863.13 498.186 860.807 498.547 858.799 498.27C854.785 497.715 820.73 480.962 826.217 441.259L827.265 433.676C830.501 410.255 820.482 398.869 804.323 395.727L788.896 476.108C788.588 478.339 786.303 480.069 784.073 479.76L783.626 479.699L739.325 471.304C736.679 470.711 735.172 468.457 735.542 465.78L757.592 350.627C758.154 348.205 760.439 346.474 762.669 346.783L763.116 346.844L787.912 351.635C796.858 351.052 805.234 351.301 813.263 352.41C858.542 358.667 889.07 391.072 883.183 433.674Z" fill="#90F5AE"/>
<path d="M721.291 450.093L718.034 480.533C717.515 484.833 716.141 487.532 713.408 488.582C711.306 489.39 695.301 491.682 680.996 485.842C672.247 495.717 661.867 502.602 651.148 506.721C616.048 520.211 575.442 504.94 562.437 471.101C552.744 445.879 556.635 402.652 598.25 386.658C608.759 382.619 619.947 380.973 629.517 381.396C630.213 379.44 631.862 378.082 634.384 377.113L635.435 376.709L673.008 365.887C678.634 364.207 681.156 366.374 682.125 368.897L682.529 369.947C686.937 390.205 691.022 409.621 696.353 423.493C701.2 436.104 706.985 444.253 715.084 445.241C717.59 445.485 720.387 445.857 721.194 447.959C721.356 448.379 721.388 449.091 721.291 450.093ZM653.811 458.417C651.081 453.195 648.398 447.472 645.894 440.956C643.794 435.491 641.823 429.736 639.82 423.269C635.683 420.034 628.877 419.273 622.782 421.615C609.54 426.704 607.111 442.353 611.231 453.072C615.755 464.842 627.829 471.78 641.491 466.53C645.484 464.995 649.785 462.377 653.811 458.417Z" fill="#90F5AE"/>
<path d="M450.56 515.311L417.91 502.702C414.533 501.351 412.957 499.55 412.957 497.298C412.957 495.722 413.632 494.146 414.758 492.569L450.109 440.105C449.434 439.43 448.983 438.304 448.308 436.953L406.202 341.707C405.526 340.131 405.076 338.78 405.076 337.654C405.076 334.501 407.778 332.475 411.155 331.574L446.957 320.991C447.858 320.766 448.758 320.541 449.659 320.541C453.712 320.541 456.639 323.468 458.215 327.296L485.01 387.866C498.295 367.826 511.13 347.786 522.163 330.448C523.514 328.197 525.09 326.846 527.567 326.846C528.918 326.846 530.945 327.296 533.196 328.647L566.746 345.985C569.448 347.336 570.799 348.912 570.799 350.939C570.799 354.316 553.687 400.476 461.593 512.384C459.341 514.861 457.315 516.212 454.613 516.212C453.487 516.212 452.136 515.987 450.56 515.311Z" fill="#90F5AE"/>
<path d="M406.504 454.01L382.904 468.47C380.172 470.137 377.849 470.497 375.842 470.219C374.95 470.095 334.739 456.793 341.014 411.517C344.755 384.529 333.594 373.208 317.536 370.982L316.42 370.827L305.199 451.79C304.828 454.466 302.542 456.195 300.089 455.855L255.482 449.672C252.805 449.301 251.076 447.016 251.447 444.339L276.734 261.896C277.074 259.443 279.391 257.49 282.067 257.861L326.674 264.044C329.128 264.384 330.826 266.893 330.486 269.346L322.449 327.335C325.156 327.483 327.832 327.854 330.286 328.194C372.217 334.006 402.21 363.623 396.758 407.877C394.972 422.405 396.325 433.959 406.049 444.172C407.232 445.473 409.376 448.043 409.036 450.497C408.882 451.612 408.25 452.888 406.504 454.01Z" fill="#90F5AE"/>
<path d="M230.293 430.975L223.488 460.87C222.499 465.406 220.698 468.031 217.377 468.649C217.377 468.649 197.969 470.199 183.265 460.108C172.146 469.277 159.883 474.765 147.707 477.031C110.739 483.909 73.811 461.463 67.1799 425.823C62.1552 398.816 73.9286 357.461 117.76 349.306C127.279 347.535 137.168 347.756 145.673 349.151L138.62 289.083C138.141 285.278 141.271 282.406 145.698 281.582L184.119 275.121C190.317 273.967 192.623 276.516 193.2 279.615L193.324 280.279C193.416 283.239 203.507 376.868 206.349 392.143C209.726 410.295 214.895 423.304 224.713 425.6C227.354 426.254 229.995 426.908 230.365 428.9C230.489 429.564 230.613 430.228 230.293 430.975ZM161.123 428.499C157.72 418.826 154.652 407.258 152.016 393.09C148.757 389.116 141.982 387.17 135.341 388.406C122.059 390.877 115.912 404.617 118.218 417.014C120.525 429.411 131.135 438.43 145.303 435.794C150.173 434.888 155.46 432.53 161.123 428.499Z" fill="#90F5AE"/>
<mask id="mask0_5_366" style="mask-type:alpha" maskUnits="userSpaceOnUse" x="66" y="257" width="957" height="562">
<path d="M879.733 689.835L879.089 690.041L792.867 712.42C787.008 714.058 785.112 711.827 784.015 708.396L783.672 707.324L776.804 680.679C775.715 676.535 776.822 673.344 778.563 670.66C789.022 653.839 802.476 624.949 802.202 624.091C802.065 623.662 801.353 623.654 800.495 623.928L773.704 631.079C771.345 631.834 765.932 631.91 764.491 627.407L764.423 627.192L757.143 599.261C755.849 594.474 757.813 591.008 761.459 589.842L761.888 589.705L838.468 569.701C840.827 568.946 849.543 566.631 851.876 573.923L852.081 574.566L858.812 600.782C859.901 604.926 859.566 609.052 857.593 613.229C853.714 621.798 844.971 638.07 836.949 653.639C836.365 654.771 836.288 655.269 836.425 655.697C836.562 656.126 837.06 656.204 837.918 655.929L867.925 647.749C872.712 646.454 875.817 648.771 876.983 652.417L877.189 653.06L884.469 680.992C885.489 684.921 884.665 688.258 879.733 689.835Z" fill="#F01C20"/>
<path d="M652.063 818.052L617.829 810.774C614.28 809.975 612.438 808.446 612.081 806.223C611.832 804.667 612.249 803.003 613.111 801.269L638.172 747.175C639.062 745.253 638.661 742.759 637.426 741.04V741.04L580.762 653.667C579.846 652.218 579.187 650.955 579.008 649.843C578.509 646.731 580.856 644.302 584.048 642.877L617.721 626.756C618.575 626.391 619.428 626.026 620.318 625.884C624.32 625.242 627.673 627.668 629.836 631.198L654.23 668.791C659.273 676.563 670.9 675.686 674.663 667.219C681.39 652.083 687.764 637.405 693.476 624.18C694.453 621.742 695.795 620.159 698.241 619.766C699.575 619.552 701.647 619.676 704.084 620.653L739.957 632.457C742.839 633.363 744.423 634.705 744.744 636.706C745.279 640.041 735.695 688.328 662.493 813.414C660.663 816.216 658.876 817.871 656.208 818.299C655.096 818.477 653.727 818.469 652.063 818.052Z" fill="#F01C20"/>
<path d="M567.816 698.749L534.941 716.087C532.239 717.663 530.213 718.338 528.412 718.338C526.16 718.338 524.133 717.212 521.657 714.51L506.389 696.8C502.323 692.083 495.282 691.373 490.247 695.037C482.133 700.941 474.033 706.465 467.616 710.908C465.139 712.484 463.113 713.61 460.861 713.61C459.51 713.61 457.934 713.159 456.358 711.808L429.788 690.417C427.311 688.391 426.185 686.364 426.185 684.563C426.185 682.987 426.861 681.411 428.662 679.834C434.744 674.468 445.232 665.406 455.948 655.698C460.609 651.475 461.005 644.318 456.91 639.545L434.291 613.185C432.49 611.158 431.814 609.357 431.814 607.781C431.814 605.529 433.616 603.502 436.318 602.151L470.318 584.588C472.12 583.687 473.696 583.237 475.272 583.237C478.199 583.237 480.901 584.813 482.928 587.29L496.262 602.847C500.723 608.051 508.676 608.337 513.499 603.468L527.961 588.866C529.537 587.29 531.114 586.164 533.14 586.164C534.941 586.164 536.968 587.065 539.445 589.092L568.942 612.509C570.968 614.085 571.869 615.436 571.869 617.012C571.869 622.508 558.177 637.287 548.785 646.771C544.376 651.224 544.024 658.344 548.125 663.082L569.843 688.166C571.419 689.967 572.094 691.543 572.094 693.119C572.094 695.371 570.518 697.398 567.816 698.749Z" fill="#F01C20"/>
<path d="M405.301 665.555C405.301 681.092 392.691 693.701 377.155 693.701C361.393 693.701 348.784 681.092 348.784 665.555C348.784 650.018 361.393 637.184 377.155 637.184C392.691 637.184 405.301 650.018 405.301 665.555Z" fill="#F01C20"/>
<path d="M966.493 502.829L964.128 503.565C959.398 505.036 956.98 504.845 954.553 501.592L937.333 479.595C936.918 479.016 936.502 478.438 936.368 478.008C935.365 474.783 939.531 473.015 942.111 472.213C954.729 468.051 958.877 460.158 957.271 454.998C956.402 452.203 952.536 449.632 948.322 446.699L940.51 442.055C927.706 434.248 920.959 426.207 918.417 418.037C910.859 393.741 941.891 369.938 970.056 361.175C978.441 358.566 980.859 358.757 983.568 362.159L1001 384.089C1001.7 384.816 1001.9 385.461 1002.1 386.106C1002.84 388.471 1000.74 390.067 997.945 390.936L997.084 391.204C984.184 395.217 980.577 401.056 981.915 405.356C983.052 409.011 987.548 412.093 998.528 418.581C1011.76 426.254 1019.07 434.591 1021.61 442.761C1029.51 468.132 995.303 493.865 966.493 502.829Z" fill="#F01C20"/>
<path d="M883.183 433.674L882.166 441.035C880.439 453.526 881.952 463.963 889.926 473.703C891.11 475.003 893.032 477.542 892.693 479.995V479.995C892.296 482.868 888.504 484.415 885.965 485.815C879.646 489.301 867.821 495.543 865.88 496.566C865.698 496.662 865.519 496.764 865.34 496.865C862.963 498.212 860.735 498.537 858.799 498.27C854.785 497.715 820.73 480.962 826.217 441.259L827.265 433.676C829.681 416.187 824.707 405.408 815.303 399.762C809.74 396.423 803.33 400.901 802.107 407.273L788.896 476.108C788.588 478.339 786.303 480.069 784.073 479.76L783.626 479.699L739.325 471.304C736.679 470.711 735.172 468.457 735.542 465.78L757.592 350.627C758.154 348.205 760.439 346.474 762.669 346.783L763.116 346.844L786.431 351.349C787.414 351.539 788.418 351.599 789.418 351.544C797.8 351.083 805.686 351.363 813.263 352.41C858.542 358.667 889.07 391.072 883.183 433.674Z" fill="#F01C20"/>
<path d="M721.291 450.093L718.034 480.533C717.515 484.833 716.141 487.532 713.408 488.582C711.691 489.242 700.698 490.892 688.931 488.292C684.068 487.217 678.842 488.405 675.171 491.77C667.792 498.536 659.574 503.483 651.148 506.721C616.048 520.211 575.442 504.94 562.437 471.101C552.744 445.879 556.635 402.652 598.25 386.658C606.389 383.53 614.935 381.837 622.821 381.429C626.797 381.223 630.668 378.541 634.384 377.113V377.113L635.435 376.709L673.008 365.887C678.634 364.207 681.156 366.374 682.125 368.897L682.207 369.11C682.421 369.668 682.593 370.241 682.719 370.824C687.055 390.764 691.099 409.822 696.353 423.493C701.2 436.104 706.985 444.253 715.084 445.241C717.59 445.485 720.387 445.857 721.194 447.959C721.356 448.379 721.388 449.091 721.291 450.093ZM646.999 463.786C651.394 461.078 652.134 455.309 649.974 450.621C648.577 447.59 647.211 444.382 645.894 440.956C644.181 436.498 642.554 431.846 640.925 426.772C640.194 424.495 638.857 422.352 636.638 421.459C632.637 419.849 627.497 419.803 622.782 421.615C609.54 426.704 607.111 442.353 611.231 453.072C615.755 464.842 627.829 471.78 641.491 466.53C643.282 465.841 645.136 464.934 646.999 463.786Z" fill="#F01C20"/>
<path d="M450.56 515.311L417.91 502.702C414.533 501.351 412.957 499.55 412.957 497.298C412.957 495.722 413.632 494.146 414.758 492.569L448.072 443.129C449.255 441.373 449.255 438.847 448.308 436.953V436.953L406.202 341.707C405.526 340.131 405.076 338.78 405.076 337.654C405.076 334.501 407.778 332.475 411.155 331.574L446.957 320.991C447.858 320.766 448.758 320.541 449.659 320.541C453.712 320.541 456.639 323.468 458.215 327.296L476.345 368.279C480.094 376.752 491.713 377.727 496.77 369.963C505.809 356.084 514.429 342.602 522.163 330.448C523.514 328.197 525.09 326.846 527.567 326.846C528.918 326.846 530.945 327.296 533.196 328.647L566.746 345.985C569.448 347.336 570.799 348.912 570.799 350.939C570.799 354.316 553.687 400.476 461.593 512.384C459.341 514.861 457.315 516.212 454.613 516.212C453.487 516.212 452.136 515.987 450.56 515.311Z" fill="#F01C20"/>
<path d="M406.504 454.01L382.904 468.47C380.172 470.137 377.849 470.497 375.842 470.219C374.95 470.095 334.739 456.793 341.014 411.517C344.755 384.529 333.594 373.208 317.536 370.982V370.982C316.92 370.897 316.351 371.327 316.266 371.943L305.199 451.79C304.828 454.466 302.542 456.195 300.089 455.855L255.482 449.672C252.805 449.301 251.076 447.016 251.447 444.339L276.734 261.896C277.074 259.443 279.391 257.49 282.067 257.861L326.674 264.044C329.128 264.384 330.826 266.893 330.486 269.346L323.531 319.524C322.948 323.729 326.08 327.611 330.286 328.194V328.194C372.217 334.006 402.21 363.623 396.758 407.877C394.972 422.405 396.325 433.959 406.049 444.172C407.232 445.473 409.376 448.043 409.036 450.497C408.882 451.612 408.25 452.888 406.504 454.01Z" fill="#F01C20"/>
<path d="M230.496 429.943C230.501 430.648 230.215 431.321 230.058 432.008L223.488 460.87C222.56 465.126 220.916 467.701 217.973 468.512C217.58 468.62 217.184 468.665 216.777 468.684C214.038 468.815 202.368 469.041 191.026 464.299C186.201 462.281 180.532 462.477 176.173 465.367C167.037 471.425 157.345 475.238 147.707 477.031C110.739 483.909 73.811 461.463 67.1799 425.823C62.1552 398.816 73.9286 357.461 117.76 349.306C121.873 348.54 126.056 348.147 130.166 348.06C137.962 347.894 144.767 341.435 143.858 333.691L138.62 289.083C138.141 285.278 141.271 282.406 145.698 281.582L184.119 275.121C190.317 273.967 192.623 276.516 193.2 279.615V279.615C193.282 280.057 193.332 280.477 193.37 280.925C194.12 289.758 203.608 377.408 206.349 392.143C209.726 410.295 214.895 423.304 224.713 425.6C227.354 426.254 229.995 426.908 230.365 428.9C230.429 429.244 230.493 429.588 230.496 429.943ZM153.553 433.02C158.269 430.765 159.897 425.113 158.402 420.104C156.297 413.049 154.347 405.097 152.58 396.051C152.201 394.111 151.419 392.199 149.807 391.056C146.192 388.492 140.722 387.404 135.341 388.406C122.059 390.877 115.912 404.617 118.218 417.014C120.525 429.411 131.135 438.43 145.303 435.794C147.934 435.305 150.686 434.392 153.553 433.02Z" fill="#F01C20"/>
</mask>
<g mask="url(#mask0_5_366)">
<path d="M1089.73 315.872L1243.54 525.806L-154.378 579.15L-50.1852 443.209L30.4402 365.775L96.1809 315.872L204.095 298.665L375.269 243.6H431.086L504.269 271.133L567.529 298.665L638.231 382.982L706.453 365.775L809.405 243.6L897.473 210.906L965.694 243.6L1011.59 298.665L1089.73 315.872Z" fill="#90F5E1"/>
<path d="M1089.73 362.783L1243.54 572.716L-154.378 626.06L-50.1852 490.119L30.4402 412.685L96.1809 362.783L204.095 345.575L375.269 290.51H431.086L504.269 318.043L567.529 345.575L638.231 429.893L706.453 412.685L809.405 290.51L897.473 257.816L965.694 290.51L1011.59 345.575L1089.73 362.783Z" fill="#90ECF5"/>
<path d="M1089.73 405.002L1243.54 614.935L-154.378 668.279L-50.1852 532.338L30.4402 454.904L96.1809 405.002L204.095 387.794L375.269 332.729H431.086L504.269 360.262L567.529 387.794L638.231 472.111L706.453 454.904L809.405 332.729L897.473 300.035L965.694 332.729L1011.59 387.794L1089.73 405.002Z" fill="#90DDF5"/>
<path d="M1089.73 458.948L1243.54 668.882L-154.378 722.225L-50.1852 586.285L30.4402 508.85L96.1809 458.948L204.095 441.741L375.269 386.676H431.086L504.269 414.208L567.529 441.741L638.231 526.058L706.453 508.85L809.405 386.676L897.473 353.981L965.694 386.676L1011.59 441.741L1089.73 458.948Z" fill="#90C2F5"/>
<path d="M1089.73 501.167L1243.54 711.101L-154.378 764.445L-50.1852 628.504L30.4402 551.07L96.1809 501.167L204.095 483.96L375.269 428.895H431.086L504.269 456.427L567.529 483.96L638.231 568.277L706.453 551.07L809.405 428.895L897.473 396.201L965.694 428.895L1011.59 483.96L1089.73 501.167Z" fill="#90ABF5"/>
<path d="M1089.73 555.114L1243.54 765.047L-154.378 818.391L-50.1852 682.451L30.4402 605.016L96.1809 555.114L204.095 537.906L375.269 482.842H431.086L504.269 510.374L567.529 537.906L638.231 622.224L706.453 605.016L809.405 482.842L897.473 450.147L965.694 482.842L1011.59 537.906L1089.73 555.114Z" fill="#9090F5"/>
<path d="M1089.73 627.824L1243.54 837.758L-154.378 891.102L-50.1852 755.161L30.4402 677.727L96.1809 627.824L204.095 610.617L375.269 555.552H431.086L504.269 583.084L567.529 610.617L638.231 694.934L706.453 677.727L809.405 555.552L897.473 522.858L965.694 555.552L1011.59 610.617L1089.73 627.824Z" fill="#A690F5"/>
<path d="M1089.73 693.498L1243.54 903.432L-154.378 956.776L-50.1852 820.835L30.4402 743.401L96.1809 693.498L204.095 676.291L375.269 621.226H431.086L504.269 648.759L567.529 676.291L638.231 760.608L706.453 743.401L809.405 621.226L897.473 588.532L965.694 621.226L1011.59 676.291L1089.73 693.498Z" fill="#C490F5"/>
<path d="M1089.73 738.063L1243.54 947.997L-154.378 1001.34L-50.1852 865.4L30.4402 787.965L96.1809 738.063L204.095 720.855L375.269 665.791H431.086L504.269 693.323L567.529 720.855L638.231 805.173L706.453 787.965L809.405 665.791L897.473 633.096L965.694 665.791L1011.59 720.855L1089.73 738.063Z" fill="#F090F5"/>
</g>
</svg>
